<svg height='300px' width='300px'  fill="#000000" xmlns="http://www.w3.org/2000/svg" data-name="Layer 1" viewBox="0 0 100 100" x="0px" y="0px"><title>Artboard 9</title><path d="M13.42,35.38A10.39,10.39,0,0,0,3,45.76V88.62A10.39,10.39,0,0,0,13.42,99H86.58A10.39,10.39,0,0,0,97,88.62V45.76A10.39,10.39,0,0,0,86.58,35.38H79L58.35,14.73a9.41,9.41,0,1,0-16.69,0L20.93,35.38Zm73.17,5A5.39,5.39,0,0,1,92,45.76V88.62A5.39,5.39,0,0,1,86.58,94H13.42A5.39,5.39,0,0,1,8,88.62V45.76a5.39,5.39,0,0,1,5.38-5.38ZM50,6a4.4,4.4,0,1,1-4.41,4.4A4.41,4.41,0,0,1,50,6ZM45.05,18.39a9.32,9.32,0,0,0,9.89,0l17,17H28Z"></path><circle cx="17.38" cy="49.65" r="2.87"></circle><circle cx="17.38" cy="84.91" r="2.87"></circle><circle cx="82.62" cy="49.65" r="2.87"></circle><circle cx="82.62" cy="84.91" r="2.87"></circle><path d="M50,84.74A17.56,17.56,0,1,0,37.59,79.6,17.44,17.44,0,0,0,50,84.74ZM62.56,67.19A12.56,12.56,0,0,1,43.07,77.66L60.47,60.25A12.47,12.47,0,0,1,62.56,67.19ZM41.12,58.31a12.58,12.58,0,0,1,15.81-1.59L39.53,74.12a12.56,12.56,0,0,1,1.59-15.82Z"></path></svg>