<svg height='300px' width='300px'  fill="#000000" xmlns:dc="http://purl.org/dc/elements/1.1/" xmlns:cc="http://creativecommons.org/ns#" xmlns:rdf="http://www.w3.org/1999/02/22-rdf-syntax-ns#" xmlns:svg="http://www.w3.org/2000/svg" xmlns="http://www.w3.org/2000/svg" xmlns:sodipodi="http://sodipodi.sourceforge.net/DTD/sodipodi-0.dtd" xmlns:inkscape="http://www.inkscape.org/namespaces/inkscape" viewBox="0 0 24 24" version="1.1" x="0px" y="0px"><path style="color:#000000;font-style:normal;font-variant:normal;font-weight:normal;font-stretch:normal;font-size:medium;line-height:normal;font-family:sans-serif;text-indent:0;text-align:start;text-decoration:none;text-decoration-line:none;text-decoration-style:solid;text-decoration-color:#000000;letter-spacing:normal;word-spacing:normal;text-transform:none;direction:ltr;block-progression:tb;writing-mode:lr-tb;baseline-shift:baseline;text-anchor:start;white-space:normal;clip-rule:nonzero;display:inline;overflow:visible;visibility:visible;opacity:1;isolation:auto;mix-blend-mode:normal;color-interpolation:sRGB;color-interpolation-filters:linearRGB;solid-color:#000000;solid-opacity:1;fill:#000000;fill-opacity:1;fill-rule:evenodd;stroke:none;stroke-width:1.99999964;stroke-linecap:round;stroke-linejoin:miter;stroke-miterlimit:4;stroke-dasharray:none;stroke-dashoffset:0;stroke-opacity:1;color-rendering:auto;image-rendering:auto;shape-rendering:auto;text-rendering:auto;enable-background:accumulate" d="M 12,1 C 5.93671,1 1,5.93671 1,12 1,18.06329 5.93671,23 12,23 18.06329,23 23,18.06329 23,12 23,5.93671 18.06329,1 12,1 Z m 0,2 c 4.98241,0 9,4.01759 9,9 0,4.98241 -4.01759,9 -9,9 C 7.01759,21 3,16.98241 3,12 3,7.01759 7.01759,3 12,3 Z M 9.52539,8.52539 a 1.0000998,1.0000998 0 0 0 -0.69727,1.7168 L 10.58594,12 8.82812,13.75781 a 1.0000998,1.0000998 0 1 0 1.41407,1.41407 L 12,13.41406 l 1.75781,1.75782 a 1.0000998,1.0000998 0 1 0 1.41407,-1.41407 L 13.41406,12 15.17188,10.24219 a 1.0000998,1.0000998 0 0 0 -0.72657,-1.7168 1.0000998,1.0000998 0 0 0 -0.6875,0.30273 L 12,10.58594 10.24219,8.82812 A 1.0000998,1.0000998 0 0 0 9.52539,8.52539 Z"></path></svg>