<svg height='300px' width='300px'  fill="#000000" xmlns="http://www.w3.org/2000/svg" xmlns:xlink="http://www.w3.org/1999/xlink" xml:space="preserve" version="1.1" style="shape-rendering:geometricPrecision;text-rendering:geometricPrecision;image-rendering:optimizeQuality;" viewBox="0 0 0.778 0.633" x="0px" y="0px" fill-rule="evenodd" clip-rule="evenodd"><defs><style type="text/css">
   
    .fil0 {fill:#000000;fill-rule:nonzero}
   
  </style></defs><g><path class="fil0" d="M0.333 0.633c-0.015,0 -0.028,-0.013 -0.028,-0.028 0,-0.016 0.013,-0.028 0.028,-0.028l0.111 0c0.016,0 0.028,0.012 0.028,0.028 0,0.015 -0.012,0.028 -0.028,0.028l-0.111 0zm0.361 -0.216c-0.015,0 -0.028,-0.013 -0.028,-0.028 0,-0.016 0.013,-0.028 0.028,-0.028l0.027 0c-0.003,-0.041 -0.014,-0.079 -0.031,-0.114l-0.023 0.013c-0.013,0.008 -0.03,0.003 -0.038,-0.01 -0.007,-0.013 -0.003,-0.03 0.01,-0.038l0.024 -0.013c-0.012,-0.017 -0.025,-0.032 -0.039,-0.046 -0.014,-0.014 -0.029,-0.027 -0.045,-0.038l-0.014 0.023c-0.007,0.013 -0.024,0.018 -0.037,0.01 -0.014,-0.007 -0.018,-0.024 -0.01,-0.038l0.013 -0.023c-0.035,-0.016 -0.074,-0.027 -0.114,-0.03l0 0.026c0,0.016 -0.013,0.028 -0.028,0.028 -0.016,0 -0.028,-0.012 -0.028,-0.028l0 -0.026c-0.041,0.003 -0.079,0.014 -0.114,0.03l0.013 0.023c0.008,0.014 0.003,0.031 -0.01,0.038 -0.013,0.008 -0.03,0.003 -0.038,-0.01l-0.013 -0.023c-0.017,0.011 -0.032,0.024 -0.046,0.038 -0.014,0.014 -0.027,0.029 -0.038,0.046l0.023 0.013c0.013,0.008 0.018,0.025 0.01,0.038 -0.007,0.013 -0.024,0.018 -0.038,0.01l-0.023 -0.013c-0.016,0.035 -0.027,0.073 -0.03,0.114l0.026 0c0.016,0 0.028,0.012 0.028,0.028 0,0.015 -0.012,0.028 -0.028,0.028l-0.026 0c0.001,0.02 0.005,0.039 0.01,0.058 0.005,0.02 0.012,0.038 0.02,0.056l0.023 -0.013c0.014,-0.008 0.031,-0.004 0.038,0.01 0.008,0.013 0.003,0.03 -0.01,0.037l-0.048 0.028c-0.013,0.008 -0.03,0.003 -0.038,-0.01l0 0c-0.017,-0.029 -0.03,-0.06 -0.039,-0.093 -0.008,-0.033 -0.013,-0.066 -0.013,-0.101 0,-0.108 0.044,-0.205 0.114,-0.275 0.07,-0.07 0.167,-0.114 0.275,-0.114 0.107,0 0.204,0.044 0.275,0.114 0.07,0.07 0.114,0.167 0.114,0.275 0,0.035 -0.005,0.068 -0.014,0.101 -0.009,0.033 -0.022,0.064 -0.039,0.093l0 0c-0.007,0.013 -0.024,0.018 -0.037,0.01l-0.048 -0.028c-0.014,-0.007 -0.018,-0.024 -0.011,-0.037 0.008,-0.014 0.025,-0.018 0.038,-0.01l0.023 0.013c0.009,-0.018 0.016,-0.036 0.021,-0.056 0.005,-0.019 0.008,-0.038 0.01,-0.058l-0.027 0zm-0.305 -0.112c0.013,0 0.025,0.003 0.036,0.009l0.072 -0.072c0.011,-0.011 0.028,-0.011 0.039,0 0.011,0.01 0.011,0.028 0,0.039l-0.072 0.072c0.005,0.011 0.008,0.023 0.008,0.036 0,0.023 -0.009,0.044 -0.024,0.059 -0.015,0.015 -0.036,0.024 -0.059,0.024 -0.023,0 -0.044,-0.009 -0.059,-0.024 -0.015,-0.015 -0.025,-0.036 -0.025,-0.059 0,-0.023 0.01,-0.044 0.025,-0.059 0.015,-0.015 0.036,-0.025 0.059,-0.025zm0.019 0.064c-0.005,-0.005 -0.012,-0.008 -0.019,-0.008 -0.008,0 -0.015,0.003 -0.02,0.008 -0.005,0.005 -0.008,0.012 -0.008,0.02 0,0.007 0.003,0.014 0.008,0.019 0.005,0.005 0.012,0.009 0.02,0.009 0.007,0 0.014,-0.004 0.019,-0.009 0.005,-0.005 0.009,-0.012 0.009,-0.019 0,-0.008 -0.004,-0.015 -0.009,-0.02z"></path></g></svg>