<svg height='300px' width='300px'  fill="#000000" xmlns="http://www.w3.org/2000/svg" data-name="Layer 2" viewBox="0 0 100 100" x="0px" y="0px"><title>contact</title><path d="M86.29,17.67H13.71a2.82,2.82,0,0,0-2.82,2.82V68.75a2.82,2.82,0,0,0,2.82,2.82H42.88l-1.55,7.77H33.2a1.5,1.5,0,1,0,0,3H66.8a1.5,1.5,0,0,0,0-3H58.67l-1.55-7.77H86.29a2.82,2.82,0,0,0,2.82-2.82V20.48A2.82,2.82,0,0,0,86.29,17.67Zm-0.18,3V60.27H13.89V20.67H86.11ZM55.61,79.33H44.39l1.55-7.77h8.12Zm0.91-10.77H13.89V63.27H86.11v5.29H56.52Z"></path><circle cx="50.74" cy="65.75" r="0.97"></circle></svg>