<svg height='300px' width='300px'  fill="#000000" xmlns="http://www.w3.org/2000/svg" xmlns:xlink="http://www.w3.org/1999/xlink" version="1.1" x="0px" y="0px" viewBox="0 0 78 78" enable-background="new 0 0 78 78" xml:space="preserve"><path d="M21.866,32.188H11.741c-1.654,0-3,1.346-3,3V55.25c0,1.654,1.346,3,3,3h10.125c1.654,0,3-1.346,3-3V35.188  C24.866,33.533,23.52,32.188,21.866,32.188z M20.854,33.688l-0.385,1.188h-7.33l-0.385-1.188H20.854z M23.366,55.25  c0,0.827-0.673,1.5-1.5,1.5H11.741c-0.827,0-1.5-0.673-1.5-1.5V35.188c0-0.827,0.673-1.5,1.5-1.5h0.224l0.544,1.679  c0.05,0.154,0.194,0.259,0.356,0.259h7.875c0.163,0,0.307-0.104,0.356-0.259l0.544-1.679h0.224c0.827,0,1.5,0.673,1.5,1.5V55.25z"></path><circle cx="16.804" cy="54.594" r="1.219"></circle><path d="M38.366,25.813H19.804c-1.654,0-3,1.346-3,3v1.875h1.5v-1.875h21.563v26.25H26.391v0.188c0,0.191-0.016,0.378-0.039,0.563  h13.403c-0.224,0.549-0.761,0.938-1.389,0.938H26.128c-0.199,0.56-0.504,1.067-0.893,1.5h13.131c1.653,0,3-1.346,3-3V28.813  C41.366,27.158,40.02,25.813,38.366,25.813z M18.513,28.063c0.26-0.446,0.738-0.75,1.291-0.75h18.563  c0.552,0,1.031,0.304,1.291,0.75H18.513z"></path><path d="M66.259,19.75H26.974c-1.654,0-3,1.347-3,3v1.563h1.5V22.75c0-0.827,0.673-1.5,1.5-1.5h39.285c0.827,0,1.5,0.673,1.5,1.5  v24.188H42.866v0.75h24.893v2.25c0,0.828-0.673,1.5-1.5,1.5H42.866v1.5h9.124v3.813h-9.387c-0.199,0.56-0.504,1.067-0.893,1.5  h14.155c0.413,0,0.75-0.336,0.75-0.75s-0.337-0.75-0.75-0.75H53.49v-3.813h12.769c1.655,0,3-1.346,3-3V22.75  C69.259,21.097,67.914,19.75,66.259,19.75z"></path><circle cx="46.616" cy="49.406" r="1.219"></circle></svg>