<svg height='300px' width='300px'  fill="#000000" xmlns="http://www.w3.org/2000/svg" data-name="Layer 1" viewBox="0 0 100 100" x="0px" y="0px"><title>57 all</title><path d="M31,79.38H69a11,11,0,0,0,11-11v-15a4,4,0,0,0-8,0v15a3,3,0,0,1-3,3H31a3,3,0,0,1-3-3v-15a4,4,0,0,0-8,0v15A11,11,0,0,0,31,79.38Z"></path><path d="M50,20.62a4,4,0,0,0-4,4V49.81l-6.08-5.5a4,4,0,0,0-5.37,5.93L47.32,61.79c.08.07.16.12.24.18s.19.15.29.22a3.94,3.94,0,0,0,.37.2l.3.15a3.94,3.94,0,0,0,.44.14l.28.08a3.82,3.82,0,0,0,1.52,0l.28-.08a4,4,0,0,0,.44-.14l.3-.15a3.93,3.93,0,0,0,.37-.2c.1-.07.19-.14.29-.22s.16-.11.24-.18L65.45,50.24a4,4,0,1,0-5.37-5.93L54,49.81V24.62A4,4,0,0,0,50,20.62Z"></path></svg>