<svg height='300px' width='300px'  fill="#000000" xmlns="http://www.w3.org/2000/svg" xmlns:xlink="http://www.w3.org/1999/xlink" version="1.1" x="0px" y="0px" viewBox="0 0 100 100" enable-background="new 0 0 100 100" xml:space="preserve"><path d="M93.368,24.309L75.691,6.631c-0.609-0.61-1.436-0.952-2.298-0.952s-1.688,0.342-2.298,0.952L60.435,17.292  c-0.002,0.001-0.003,0.002-0.005,0.004s-0.002,0.003-0.004,0.005L19.948,57.778c-0.452,0.452-0.761,1.028-0.888,1.655l-4.478,22.156  c-0.216,1.067,0.117,2.172,0.888,2.942c0.615,0.615,1.444,0.952,2.298,0.952c0.214,0,0.43-0.021,0.644-0.064l22.155-4.479  c0.627-0.126,1.202-0.436,1.654-0.888l7.071-7.071v0c0,0,0,0,0,0l33.408-33.408c0.001-0.001,0.001-0.001,0.002-0.002  s0.001-0.001,0.002-0.002l10.663-10.664C94.638,27.636,94.638,25.578,93.368,24.309z M46.995,66.087l-4.243-4.243l28.814-28.814  l4.243,4.243L46.995,66.087z M38.156,57.248l-4.243-4.243l28.814-28.814l4.243,4.243L38.156,57.248z M38.319,74.763l-16.396,3.314  l3.313-16.396l4.08-4.08l13.082,13.081L38.319,74.763z M80.405,32.676L67.324,19.595l6.069-6.069l13.081,13.082L80.405,32.676z"></path></svg>