<svg height='300px' width='300px'  fill="#000000" xmlns="http://www.w3.org/2000/svg" xmlns:xlink="http://www.w3.org/1999/xlink" version="1.1" x="0px" y="0px" viewBox="0 0 64 64" style="enable-background:new 0 0 64 64;" xml:space="preserve"><path d="M62.5000114,32.0000801c0-16.8177795-13.6821518-30.5000916-30.4999313-30.5000916  S1.4999881,15.1823006,1.4999881,32.0000801s13.682312,30.4999313,30.5000916,30.4999313  S62.5000114,48.8178596,62.5000114,32.0000801z M24.8105659,51.1645279  c-0.7757664-1.7690048-1.4273243-3.7486038-1.9514256-5.8788605c2.4053211,0.3523674,4.9204922,0.5666924,7.498209,0.6302223  v11.597496c-0.355999-0.0227013-0.7110958-0.048748-1.0630436-0.0859261  C27.667738,56.2773666,26.1124172,54.133152,24.8105659,51.1645279z M6.5725417,34.7057724  c-0.0939879-0.8894653-0.1443605-1.7917213-0.1443605-2.7056923c0-0.913969,0.0503726-1.8162289,0.1443605-2.7056942  c1.1500721-1.6265678,3.2942452-3.1819687,6.2627711-4.48382c1.769165-0.7758656,3.7489233-1.4274845,5.8793612-1.9516258  c-0.4269257,2.9141636-0.6522999,5.9897919-0.6522999,9.14114c0,3.1512871,0.2253933,6.2269554,0.6523399,9.1411591  c-2.1304379-0.5241394-4.1102362-1.1757774-5.8794012-1.9516449C9.866787,37.8877411,7.7226138,36.3323631,6.5725417,34.7057724z   M21.3478355,32.0000801c0-3.4311256,0.2774315-6.7565937,0.8019543-9.8504696  c2.597168-0.4403019,5.3577461-0.70508,8.2075596-0.7784538v21.2578449c-2.8497944-0.0733719-5.6103916-0.33815-8.2075386-0.77845  C21.625288,38.7567139,21.3478355,35.4312477,21.3478355,32.0000801z M29.2943058,6.5725417  c0.3519478-0.037178,0.7070446-0.0632267,1.0630436-0.0859265v11.5978174  c-2.5777569,0.0635281-5.092947,0.277853-7.4982891,0.6302204c0.5241222-2.1304169,1.1756992-4.1101952,1.9515057-5.8793402  C26.1124172,9.866787,27.667738,7.7226138,29.2943058,6.5725417z M39.1894341,12.8353128  c0.7758675,1.769145,1.4274826,3.7489233,1.9516258,5.8793402c-2.4053001-0.3523674-4.9205132-0.5666924-7.4982491-0.6302204  V6.4866152c0.355999,0.0226998,0.7110558,0.0487485,1.0630035,0.0859265  C36.3323402,7.7226138,37.8875809,9.866787,39.1894341,12.8353128z M57.4274597,29.2943859  c0.0939865,0.8894653,0.1443596,1.7917252,0.1443596,2.7056942c0,0.9139709-0.0503731,1.816227-0.1443596,2.7056923  c-1.150074,1.6265907-3.2942467,3.1819687-6.2627716,4.4838219c-1.7691269,0.7758446-3.7488632,1.4274635-5.8792229,1.9516068  c0.4269485-2.9142036,0.6523209-5.9898529,0.6523209-9.1411209c0-3.1513481-0.2253723-6.2269363-0.652298-9.1410999  c2.1303558,0.5241413,4.1100731,1.1757393,5.8792,1.9515858C54.133213,26.1124172,56.2773857,27.6678181,57.4274597,29.2943859z   M42.6523247,32.0000801c0,3.4311447-0.2774506,6.7566147-0.8019943,9.8504486  c-2.597168,0.4403229-5.3577271,0.705101-8.2075195,0.7784729V21.3711567  c2.8497925,0.0733738,5.6103706,0.3381519,8.2075386,0.7784729C42.3748932,25.2435074,42.6523247,28.5689735,42.6523247,32.0000801z   M34.7058144,57.4274597c-0.3519478,0.037178-0.7070045,0.0632248-1.0630035,0.0859261v-11.597496  c2.5777168-0.06353,5.0928879-0.2778549,7.4981689-0.6302223c-0.5241203,2.1302567-1.1757202,4.1098557-1.9515457,5.8788605  C37.8875809,54.133152,36.3323402,56.2773666,34.7058144,57.4274597z M40.2030678,56.2143784  c0.7155647-1.0916367,1.3839493-2.336277,1.9952583-3.7302132c1.0196304-2.3249702,1.8430595-4.9700813,2.4567986-7.8288193  c2.8588181-0.613739,5.5039902-1.437191,7.8290405-2.4568596c1.3938942-0.6112709,2.6385155-1.2796516,3.7301559-1.9952202  C53.6628532,47.713707,47.7135887,53.6629753,40.2030678,56.2143784z M56.2143402,23.7969322  c-1.0916367-0.7155666-2.3362579-1.3839684-3.730175-1.9952602c-2.3250313-1.0195885-4.9701843-1.8429985-7.8289795-2.4567165  c-0.613739-2.8588161-1.437191-5.5040112-2.4568596-7.8291206c-0.6113319-1.3939352-1.2797318-2.6385765-1.9953194-3.7302351  C47.7135887,10.3370266,53.6628914,16.2863522,56.2143402,23.7969322z M23.7970943,7.7856197  c-0.7155666,1.0916586-1.3839703,2.3362999-1.9952621,3.7302151c-1.0196667,2.3250694-1.8431377,4.9702435-2.4568768,7.8291016  c-2.8588581,0.613718-5.5040712,1.4371281-7.8291206,2.4567356c-1.3938951,0.6112728-2.6385164,1.2796745-3.730155,1.9952412  C10.3371468,16.2863522,16.2865314,10.3370266,23.7970943,7.7856197z M7.7857203,40.2032661  c1.0916381,0.7155685,2.3362393,1.3839493,3.7301145,1.9952202c2.3250694,1.0196915,4.9703045,1.8431396,7.8292007,2.4568787  c0.613739,2.8587379,1.43717,5.50383,2.4567966,7.8288002c0.6112728,1.3939171,1.2796555,2.6385574,1.9952011,3.7301941  C16.2865124,53.6629333,10.3372068,47.7136688,7.7857203,40.2032661z"></path></svg>