<svg height='300px' width='300px'  fill="#000000" xmlns="http://www.w3.org/2000/svg" xmlns:xlink="http://www.w3.org/1999/xlink" version="1.1" x="0px" y="0px" viewBox="0 0 100 100" enable-background="new 0 0 100 100" xml:space="preserve"><g><g><circle fill="#000000" cx="28.409" cy="35.485" r="5.548"></circle><path fill="#000000" d="M32.398,40.99c-1.122,0.814-2.497,1.3-3.989,1.3c-1.492,0-2.867-0.486-3.988-1.3    c-2.905,1.463-4.902,4.463-4.902,7.937c0,4.91,3.98,18.99,8.891,18.99s8.891-14.08,8.891-18.99    C37.3,45.453,35.303,42.452,32.398,40.99z"></path></g><g><circle fill="#000000" cx="50.191" cy="35.484" r="5.548"></circle><path fill="#000000" d="M54.18,40.989c-1.122,0.814-2.497,1.3-3.989,1.3c-1.492,0-2.867-0.485-3.988-1.3    c-2.905,1.463-4.902,4.463-4.902,7.938c0,4.91,3.98,18.99,8.891,18.99c4.911,0,8.891-14.08,8.891-18.99    C59.082,45.452,57.084,42.452,54.18,40.989z"></path></g><g><circle fill="#000000" cx="71.972" cy="35.527" r="5.547"></circle><path fill="#000000" d="M75.961,41.032c-1.122,0.814-2.497,1.3-3.989,1.3s-2.867-0.486-3.988-1.3    c-2.904,1.463-4.902,4.464-4.902,7.938c0,4.91,3.98,18.99,8.891,18.99c4.911,0,8.892-14.08,8.892-18.99    C80.863,45.496,78.865,42.495,75.961,41.032z"></path></g></g></svg>