<svg height='300px' width='300px'  fill="#000000" xmlns="http://www.w3.org/2000/svg" xmlns:xlink="http://www.w3.org/1999/xlink" version="1.1" x="0px" y="0px" viewBox="0 0 100 100" enable-background="new 0 0 100 100" xml:space="preserve"><path fill-rule="evenodd" clip-rule="evenodd" d="M81.757,36.811h-4.154v4.154c0,1.689-1.369,3.058-3.058,3.058h-1.139  c-1.689,0-3.058-1.369-3.058-3.058v-4.154h-4.154c-1.689,0-3.058-1.369-3.058-3.058v-1.138c0-1.689,1.369-3.058,3.058-3.058h4.154  v-4.154c0-1.689,1.369-3.058,3.058-3.058h1.139c1.689,0,3.058,1.369,3.058,3.058v4.154h4.154c1.689,0,3.058,1.369,3.058,3.058v1.138  C84.815,35.441,83.446,36.811,81.757,36.811z M72.614,66.916c0.078,0.347,0.129,0.705,0.129,1.077v8.4c0,2.651-2.102,4.8-4.693,4.8  H19.878c-2.592,0-4.693-2.149-4.693-4.8v-8.4c0-0.352,0.042-0.693,0.113-1.024c0.722-10.405,8.713-19.122,18.475-22.573  c-3.274-2.637-5.373-6.673-5.373-11.204c0-7.945,6.44-14.386,14.385-14.386S57.17,25.248,57.17,33.193  c0,4.496-2.064,8.507-5.295,11.145C62.316,47.74,71.771,56.474,72.614,66.916z M22.418,67.744c-0.012,0.071-0.042,0.136-0.042,0.21  v4.659c0,0.745,0.604,1.349,1.349,1.349h3.45v-6.503c0-1.651,1.338-2.989,2.989-2.989h1.2c1.651,0,2.989,1.338,2.989,2.989v6.503  h19.222v-6.503c0-1.651,1.338-2.989,2.989-2.989h1.2c1.651,0,2.989,1.338,2.989,2.989v6.503h3.445c0.745,0,1.349-0.604,1.349-1.349  v-4.659c0-0.066-0.029-0.123-0.038-0.187C65.097,57.905,53.283,50.01,43.056,50.01C32.837,50.01,22.817,57.893,22.418,67.744z   M42.785,25.95c-4,0-7.243,3.243-7.243,7.243c0,4,3.243,7.243,7.243,7.243s7.243-3.243,7.243-7.243  C50.027,29.193,46.785,25.95,42.785,25.95z"></path></svg>