<svg height='300px' width='300px'  fill="#000000" xmlns="http://www.w3.org/2000/svg" xmlns:xlink="http://www.w3.org/1999/xlink" version="1.1" x="0px" y="0px" viewBox="0 0 100 100" style="enable-background:new 0 0 100 100;" xml:space="preserve"><g><path d="M26.279,44.068c-0.672,7.508,2.097,14.742,7.598,19.844c3.119,2.894,4.908,6.951,4.908,11.133v1.5v8.044   c0,2.918,2.279,5.309,5.15,5.5C44.674,92.602,47.162,95,50.231,95s5.557-2.398,6.296-4.911c2.871-0.191,5.15-2.581,5.15-5.5v-8.044   v-1.5c0-4.181,1.789-8.239,4.909-11.133c5.501-5.104,8.271-12.336,7.598-19.844c-1.04-11.612-10.604-20.975-22.248-21.779   c-1.146-0.079-2.262-0.079-3.409,0C36.884,23.093,27.319,32.456,26.279,44.068z M58.677,82.587H41.786v-1.521h16.891V82.587z    M50.231,92c-1.287,0-2.413-0.897-3.028-1.892h6.057C52.644,91.103,51.518,92,50.231,92z M56.158,87.108H44.305   c-1.034,0-1.923-0.627-2.311-1.521h16.474C58.081,86.481,57.192,87.108,56.158,87.108z M58.677,78.066H41.786v-1.521h16.891V78.066   z M45.603,51.399h-1.969c-1.086,0-1.97-0.883-1.97-1.969s0.884-1.97,1.97-1.97s1.969,0.884,1.969,1.97V51.399z M48.603,54.399   h3.256v19.146h-3.256V54.399z M48.733,25.282c1.007-0.069,1.99-0.069,2.996,0c10.188,0.703,18.556,8.895,19.466,19.054   c0.589,6.576-1.834,12.91-6.649,17.377c-3.356,3.113-5.424,7.359-5.805,11.832h-3.881V54.399h1.97c2.74,0,4.969-2.229,4.969-4.969   s-2.229-4.97-4.969-4.97s-4.97,2.229-4.97,4.97v1.969h-3.256V49.43c0-2.74-2.229-4.97-4.969-4.97s-4.97,2.229-4.97,4.97   s2.229,4.969,4.97,4.969h1.969v19.146h-3.881c-0.38-4.473-2.448-8.719-5.804-11.832c-4.815-4.467-7.239-10.801-6.65-17.377   C30.177,34.177,38.546,25.985,48.733,25.282z M54.859,51.399V49.43c0-1.086,0.884-1.97,1.97-1.97s1.969,0.884,1.969,1.97   s-0.883,1.969-1.969,1.969H54.859z"></path><path d="M48.641,6.59v6.968c0,0.875,0.716,1.59,1.59,1.59c0.875,0,1.59-0.716,1.59-1.59V6.59c0-0.875-0.716-1.59-1.59-1.59   C49.357,5,48.641,5.716,48.641,6.59z"></path><path d="M74.623,13.076c-0.708-0.514-1.707-0.356-2.221,0.352l-4.096,5.637c-0.514,0.708-0.356,1.707,0.352,2.221   c0.708,0.514,1.707,0.356,2.221-0.352l4.096-5.637C75.488,14.589,75.33,13.59,74.623,13.076z"></path><path d="M81.961,38.102l6.627-2.153c0.832-0.27,1.291-1.172,1.021-2.004c-0.27-0.832-1.172-1.291-2.004-1.021l-6.627,2.153   c-0.832,0.27-1.291,1.172-1.021,2.004C80.228,37.913,81.129,38.373,81.961,38.102z"></path><path d="M80.835,58.506l6.627,2.153c0.832,0.27,1.733-0.189,2.004-1.021c0.27-0.832-0.189-1.733-1.021-2.004l-6.627-2.153   c-0.832-0.27-1.733,0.189-2.004,1.021C79.544,57.334,80.004,58.236,80.835,58.506z"></path><path d="M70.505,72.482c-0.514-0.708-1.514-0.866-2.221-0.352c-0.707,0.514-0.866,1.514-0.352,2.221l4.096,5.637   c0.514,0.707,1.514,0.866,2.221,0.352c0.708-0.514,0.866-1.514,0.352-2.221L70.505,72.482z"></path><path d="M25.377,80.069c0.708,0.514,1.707,0.356,2.221-0.352l4.096-5.637c0.514-0.708,0.356-1.707-0.352-2.221   c-0.708-0.514-1.707-0.356-2.221,0.352l-4.096,5.637C24.512,78.555,24.67,79.554,25.377,80.069z"></path><path d="M12.395,60.219l6.627-2.153c0.832-0.27,1.291-1.172,1.021-2.004h0c-0.27-0.832-1.172-1.291-2.004-1.021l-6.627,2.153   c-0.832,0.27-1.291,1.172-1.021,2.004C10.661,60.03,11.563,60.49,12.395,60.219z"></path><path d="M11.555,35.509l6.627,2.153c0.832,0.27,1.733-0.189,2.004-1.021c0.27-0.832-0.189-1.733-1.021-2.004l-6.627-2.153   c-0.832-0.27-1.733,0.189-2.004,1.021C10.264,34.337,10.723,35.239,11.555,35.509z"></path><path d="M27.973,13.155c-0.514-0.708-1.514-0.866-2.221-0.352c-0.708,0.514-0.866,1.514-0.352,2.221l4.096,5.637   c0.514,0.708,1.514,0.866,2.221,0.352c0.708-0.514,0.866-1.514,0.352-2.221L27.973,13.155z"></path><path d="M50.229,30.716c2.82,0,5.565,0.791,7.938,2.288c0.249,0.157,0.525,0.231,0.799,0.231c0.498,0,0.985-0.248,1.27-0.7   c0.442-0.701,0.232-1.627-0.468-2.069c-2.852-1.8-6.15-2.751-9.538-2.751c-0.829,0-1.5,0.671-1.5,1.5S49.401,30.716,50.229,30.716z   "></path><path d="M64.022,39.97c0.238,0.58,0.798,0.932,1.389,0.932c0.189,0,0.382-0.036,0.568-0.112c0.767-0.314,1.133-1.19,0.819-1.957   c-0.591-1.441-1.37-2.803-2.316-4.046c-0.502-0.66-1.445-0.787-2.102-0.286c-0.66,0.502-0.787,1.443-0.286,2.102   C62.883,37.638,63.531,38.771,64.022,39.97z"></path></g></svg>