<svg height='300px' width='300px'  fill="#000000" xmlns="http://www.w3.org/2000/svg" xmlns:xlink="http://www.w3.org/1999/xlink" version="1.1" x="0px" y="0px" viewBox="0 0 100 100" enable-background="new 0 0 100 100" xml:space="preserve"><path d="M88.421,38.974L54.204,4.452C53.09,3.33,51.573,2.697,49.99,2.697c-1.582,0-3.099,0.633-4.212,1.755L30.252,20.118v-4.683  c0-1.638-1.328-2.966-2.967-2.966c-1.638,0-2.964,1.328-2.964,2.966v10.531c0,0.042,0.01,0.082,0.011,0.124L11.563,38.974  c-1.103,1.109-1.72,2.611-1.72,4.175v48.285c0,3.274,2.656,5.93,5.932,5.93h68.432c3.277,0,5.932-2.654,5.932-5.93V43.149  C90.139,41.584,89.521,40.083,88.421,38.974z M74.002,91.434H55.479V56.029h18.522L74.002,91.434L74.002,91.434z M77.956,91.434  V54.053c0-1.09-0.886-1.976-1.978-1.976H53.502c-1.092,0-1.979,0.886-1.979,1.976v37.381H15.775V45.126h47.711  c1.093,0,1.979-0.885,1.979-1.978c0-1.093-0.886-1.977-1.979-1.977H17.734L49.99,8.628l32.258,32.544h-7.363  c-1.092,0-1.978,0.884-1.978,1.977c0,1.092,0.886,1.978,1.978,1.978h9.322v46.307H77.956z"></path><path d="M43.426,52.077h-19.97c-1.092,0-1.977,0.886-1.977,1.976v21.342c0,1.092,0.885,1.979,1.977,1.979h19.971  c1.092,0,1.976-0.888,1.976-1.979V54.053C45.402,52.963,44.518,52.077,43.426,52.077z M41.449,73.418H25.433V56.029h16.016V73.418z"></path><path d="M60.752,77.374c1.092,0,1.979-0.888,1.979-1.979v-4.836c0-1.093-0.887-1.978-1.979-1.978c-1.093,0-1.977,0.885-1.977,1.978  v4.836C58.775,76.486,59.659,77.374,60.752,77.374z"></path></svg>