<svg height='300px' width='300px'  fill="#000000" xmlns="http://www.w3.org/2000/svg" xmlns:xlink="http://www.w3.org/1999/xlink" version="1.1" x="0px" y="0px" viewBox="0 0 100 100" enable-background="new 0 0 100 100" xml:space="preserve"><g><g><path fill="#000000" d="M66,57.9c3-2.6,5.3-5.9,6.8-9.7c0.1-0.2,0.2-0.4,0.3-0.6c2.1-4.8,4-16,0.8-23.2    c-3.9-8.9-15.2-13.2-19-13.9c-0.5-0.1-1.1-0.3-1.1-0.3l0.3-2.6l-1.7,2.1L49,7.6l1.3,2.4c0,0-16.5,0.3-23.2,12.4    c-4.7,8.5-2.5,21.8,0.3,26.4c1.5,3.8,4,7.1,7.1,9.6c-1.5,1.3-2.8,2.8-3.9,4.5c-3.1,5-4.6,11.9-4.6,21.8c0,1.5,1.5,1.9,3.6,2.5    c0.4,0.1,1.1,0.3,1.5,0.5c0.8,9.2,8.9,9.2,16,9.2l3.2,0c9.8,0,18.3,0,19.3-9.2c0.4-0.1,1-0.3,1.4-0.4c2.1-0.6,3.6-1,3.6-2.5    C74.6,73.8,73.2,63.6,66,57.9z M28.7,41.3c1-1.1,2.3-2.4,3-3.5c0.8-1.2,1.5-3.1,2-4.5c3.5,3.2,9.3,7.6,15,8.5c9,1.4,16,0.6,16,0.6    l-3-2.1c0,0,6.8,2.2,7.9,2.2c0.6,0,1.2-0.1,1.6-0.2C69.8,52.8,60.8,60.9,50,60.9C38.8,60.9,29.6,52.3,28.7,41.3z M55.8,63.2    c-1.1,1-3.3,1.8-6,1.8c-2.9,0-5.1-0.9-6.2-1.9c2,0.6,4.2,0.9,6.4,0.9C52,63.9,53.9,63.7,55.8,63.2z M49.3,93.8l-2.2,0    c-8.8,0-12.7-0.7-13-7.1c0-0.1,0-0.2-0.1-0.4l0,0c0,0,0-0.2,0-0.5h4.2c-0.2,0.4-0.5,0.9-0.9,1.3c-0.7,0.7-1.7,0.9-1.7,0.9l0.2,1    l0.2,1c0.2,0,1.6-0.4,2.7-1.5c0.9-1,1.5-2.3,1.6-2.6h8.9V93.8z M66.7,86.4c0,0.1-0.1,0.2-0.1,0.3c-0.4,6.6-5.3,7.1-15.3,7.1v-7.9    h8.8c0.1,0.3,0.7,1.7,1.6,2.6c1.1,1.1,2.5,1.5,2.7,1.5l0.4-2c0,0-1-0.2-1.7-0.9c-0.4-0.4-0.7-0.9-0.9-1.3h4.4    C66.7,86.2,66.7,86.4,66.7,86.4L66.7,86.4z M70.2,84.3c-0.5,0.1-1,0.3-1.4,0.4c0-0.1,0-0.2-0.1-0.3l-2.4-13.1c0,0,0.2,5.4,0.4,8.8    c0.1,1.4,0.1,2.7,0.1,3.8H33.9c0-1.1,0-2.4,0.1-3.8c0.2-3.4,0.4-8.8,0.4-8.8L32,84.8c-0.4-0.2-0.9-0.3-1.5-0.5    c-0.4-0.1-1-0.3-1.5-0.4c0.1-11.9,2.6-19.6,8.1-23.7c1.2,0.8,2.5,1.4,3.9,2c0.4,2.7,4.1,4.8,8.8,4.8c4.6,0,8.2-2,8.8-4.6    c1.8-0.7,3.4-1.5,5-2.5c6.3,4.3,8,12.7,8.1,24C71.1,84,70.6,84.2,70.2,84.3z"></path><path fill="#000000" d="M44.6,53.1c1.2,0,2.2-1,2.2-2.2v-2.6c0-1.2-1-2.2-2.2-2.2c-1.2,0-2.2,1-2.2,2.2v2.6    C42.4,52.1,43.4,53.1,44.6,53.1z"></path><path fill="#000000" d="M55.4,53.1c1.2,0,2.2-1,2.2-2.2v-2.6c0-1.2-1-2.2-2.2-2.2c-1.2,0-2.2,1-2.2,2.2v2.6    C53.3,52.1,54.2,53.1,55.4,53.1z"></path><path fill="#000000" d="M45.7,55.9c-0.2,0.5,0,1.1,0.4,1.3c0.1,0,1.6,0.8,3.8,0.8c2.4,0,3.9-0.7,3.9-0.8c0.5-0.3,0.7-0.8,0.4-1.3    c-0.2-0.5-0.8-0.7-1.3-0.4c0,0-1.1,0.6-3,0.6c-1.7,0-2.8-0.5-2.9-0.6C46.6,55.2,46,55.4,45.7,55.9z"></path></g></g><g display="none"><g display="inline"><path fill="#000000" d="M66,57.9c3-2.6,5.3-5.9,6.8-9.7c0.1-0.2,0.2-0.4,0.3-0.6c2.1-4.8,4-16,0.8-23.2    c-3.9-8.9-15.2-13.2-19-13.9c-0.5-0.1-1.1-0.3-1.1-0.3l0.3-2.6l-1.7,2.1L49,7.6l1.3,2.4c0,0-16.5,0.3-23.2,12.4    c-4.7,8.5-2.5,21.8,0.3,26.4c1.5,3.8,4,7.1,7.1,9.6c-1.5,1.3-2.8,2.8-3.9,4.5c-3.1,5-4.6,11.9-4.6,21.8c0,1.5,1.5,1.9,3.6,2.5    c0.4,0.1,1.1,0.3,1.5,0.5c0.8,9.2,8.9,9.2,16,9.2l3.2,0c9.8,0,18.3,0,19.3-9.2c0.4-0.1,1-0.3,1.4-0.4c2.1-0.6,3.6-1,3.6-2.5    C74.6,73.8,73.2,63.6,66,57.9z M28.7,41.3c1-1.1,2.3-2.4,3-3.5c0.8-1.2,1.5-3.1,2-4.5c3.5,3.2,9.3,7.6,15,8.5c9,1.4,16,0.6,16,0.6    l-3-2.1c0,0,6.8,2.2,7.9,2.2c0.6,0,1.2-0.1,1.6-0.2C69.8,52.8,60.8,60.9,50,60.9C38.8,60.9,29.6,52.3,28.7,41.3z M55.8,63.2    c-1.1,1-3.3,1.8-6,1.8c-2.9,0-5.1-0.9-6.2-1.9c2,0.6,4.2,0.9,6.4,0.9C52,63.9,53.9,63.7,55.8,63.2z M49.3,93.8l-2.2,0    c-8.8,0-12.7-0.7-13-7.1c0-0.1,0-0.2-0.1-0.4l0,0c0,0,0-0.2,0-0.5h4.2c-0.2,0.4-0.5,0.9-0.9,1.3c-0.7,0.7-1.7,0.9-1.7,0.9l0.2,1    l0.2,1c0.2,0,1.6-0.4,2.7-1.5c0.9-1,1.5-2.3,1.6-2.6h8.9V93.8z M66.7,86.4c0,0.1-0.1,0.2-0.1,0.3c-0.4,6.6-5.3,7.1-15.3,7.1v-7.9    h8.8c0.1,0.3,0.7,1.7,1.6,2.6c1.1,1.1,2.5,1.5,2.7,1.5l0.4-2c0,0-1-0.2-1.7-0.9c-0.4-0.4-0.7-0.9-0.9-1.3h4.4    C66.7,86.2,66.7,86.4,66.7,86.4L66.7,86.4z M70.2,84.3c-0.5,0.1-1,0.3-1.4,0.4c0-0.1,0-0.2-0.1-0.3l-2.4-13.1c0,0,0.2,5.4,0.4,8.8    c0.1,1.4,0.1,2.7,0.1,3.8H33.9c0-1.1,0-2.4,0.1-3.8c0.2-3.4,0.4-8.8,0.4-8.8L32,84.8c-0.4-0.2-0.9-0.3-1.5-0.5    c-0.4-0.1-1-0.3-1.5-0.4c0.1-11.9,2.6-19.6,8.1-23.7c1.2,0.8,2.5,1.4,3.9,2c0.4,2.7,4.1,4.8,8.8,4.8c4.6,0,8.2-2,8.8-4.6    c1.8-0.7,3.4-1.5,5-2.5c6.3,4.3,8,12.7,8.1,24C71.1,84,70.6,84.2,70.2,84.3z"></path><path fill="#000000" d="M44.6,53.1c1.2,0,2.2-1,2.2-2.2v-2.6c0-1.2-1-2.2-2.2-2.2c-1.2,0-2.2,1-2.2,2.2v2.6    C42.4,52.1,43.4,53.1,44.6,53.1z"></path><path fill="#000000" d="M55.4,53.1c1.2,0,2.2-1,2.2-2.2v-2.6c0-1.2-1-2.2-2.2-2.2c-1.2,0-2.2,1-2.2,2.2v2.6    C53.3,52.1,54.2,53.1,55.4,53.1z"></path><path fill="#000000" d="M47.6,57.5h4.9c0.6,0,1-0.4,1-1s-0.4-1-1-1h-4.9c-0.6,0-1,0.4-1,1S47,57.5,47.6,57.5z"></path></g></g><g display="none"><path display="inline" fill="#000000" d="M73.1,84.6c0-16.4-3.1-29.7-22.8-29.7c-18.7,0-22.8,13.3-22.8,29.7c0,0.7,5,1.4,5.1,2.2   c0.4,9,7.7,8.5,17.7,8.5c10,0,17.3,0,17.9-8.5C68.2,86.1,73.1,85.4,73.1,84.6"></path><ellipse display="inline" fill="#000000" stroke="#000000" stroke-width="2" stroke-linecap="round" cx="49.8" cy="61.7" rx="7.8" ry="4.3"></ellipse><path display="inline" fill="#000000" d="M47.1,96.8c-7.1,0-15.1,0-16-9.2c-0.4-0.2-1.1-0.3-1.5-0.5c-2.1-0.6-3.6-1-3.6-2.5   c0-9.8,1.5-16.8,4.6-21.8c3.9-6.2,10.5-9.4,19.7-9.4c21.4,0,24.3,15,24.3,31.2c0,1.5-1.5,1.9-3.6,2.5c-0.4,0.1-1,0.3-1.4,0.4   c-1,9.2-9.5,9.2-19.3,9.2L47.1,96.8z M29,83.9c0.4,0.1,1,0.3,1.5,0.4c2.1,0.6,3.5,1,3.6,2.4c0.3,6.4,4.2,7.1,13,7.1l3.2,0   c10.8,0,15.9-0.3,16.4-7.1c0.1-1.4,1.5-1.8,3.5-2.4c0.4-0.1,1-0.3,1.4-0.4c-0.1-16.9-3.8-27.4-21.3-27.4   C35.6,56.5,29.2,64.7,29,83.9z"></path><path display="inline" fill="#000000" d="M31.9,84.8l2.4-13.5c0,0-0.2,5.4-0.4,8.8c-0.2,3.4,0,6.3,0,6.3L31.9,84.8z"></path><path display="inline" fill="#000000" d="M68.8,84.8l-2.4-13.5c0,0,0.2,5.4,0.4,8.8c0.2,3.4,0,6.3,0,6.3L68.8,84.8z"></path><rect x="25.6" y="15.1" display="inline" fill="none" width="49" height="81.7"></rect><path display="inline" fill="#000000" d="M50,62.4c12.6,0,22.9-10.3,22.9-22.9S62.6,16.6,50,16.6S27.1,26.9,27.1,39.5   S37.4,62.4,50,62.4"></path><path display="inline" fill="#000000" d="M50,62.4c12.6,0,22.9-10.3,22.9-22.9S62.6,16.6,50,16.6S27.1,26.9,27.1,39.5   S37.4,62.4,50,62.4"></path><circle display="inline" fill="#000000" stroke="#000000" stroke-width="3.004" cx="50" cy="39.5" r="22.9"></circle><circle display="inline" fill="#000000" stroke="#000000" stroke-width="3.004" cx="50" cy="39.5" r="22.9"></circle><line display="inline" fill="#000000" stroke="#000000" stroke-width="2.029" x1="50.3" y1="85.5" x2="50.3" y2="95.7"></line><rect x="25.6" y="15.1" display="inline" fill="none" width="49" height="81.7"></rect><g display="inline"><path fill="#000000" stroke="#000000" stroke-width="2" d="M35.9,89.1c0,0,1.3-0.3,2.2-1.2c0.9-1,1.4-2.4,1.4-2.4"></path><path fill="#000000" stroke="#000000" stroke-width="2" d="M64.7,89.1c0,0-1.3-0.3-2.2-1.2c-0.9-1-1.4-2.4-1.4-2.4"></path></g><line display="inline" fill="#000000" stroke="#000000" stroke-width="2" stroke-linecap="round" x1="33.2" y1="84.9" x2="67.8" y2="84.9"></line><path display="inline" fill="#000000" d="M30.4,30.1c0,0,9.3,10.3,18.2,11.8c9,1.4,16,0.6,16,0.6l-3-2.1c0,0,6.8,2.2,7.9,2.2   c2.1,0.1,3.5-1.2,3.5-1.2l-2.5,8.2L68.2,55c0,0,2.7-2.6,4.8-7.4s4-16,0.8-23.2c-3.9-8.9-15.2-13.2-19-13.9   c-0.5-0.1-1.1-0.3-1.1-0.3l0.3-2.6l-1.7,2.1L49,7.6l1.3,2.4c0,0-16.5,0.3-23.2,12.4c-5,9.2-2.2,23.7,0.9,27.2s3.5,3.5,3.5,3.5   S27,41.3,27.5,39C28,36.7,30.4,30.1,30.4,30.1z"></path><path display="inline" fill="#000000" d="M27.1,42.9c0,0,3.3-3.1,4.6-5.1c1.3-2,2.5-6.1,2.5-6.1l-6-2.9L27.1,42.9z"></path><path display="inline" fill="#000000" stroke="#000000" stroke-width="2" stroke-linecap="round" d="M46.6,56.3c0,0,1.3,0.7,3.3,0.7   c2.2,0,3.5-0.7,3.5-0.7"></path><g display="inline"><path fill="#000000" stroke="#000000" stroke-width="2" stroke-linecap="round" d="M40.5,50c0,0,1-1.2,2.9-1.4c2-0.2,3.2,0.3,3.2,0.3    "></path><path fill="#000000" stroke="#000000" stroke-width="2" stroke-linecap="round" d="M59.5,50c0,0-1-1.2-2.9-1.4    c-2-0.2-3.2,0.3-3.2,0.3"></path></g></g><g display="none"><path display="inline" fill="#000000" d="M73.1,84.6c0-16.4-3.1-29.7-22.8-29.7c-18.7,0-22.8,13.3-22.8,29.7c0,0.7,5,1.4,5.1,2.2   c0.4,9,7.7,8.5,17.7,8.5c10,0,17.3,0,17.9-8.5C68.2,86.1,73.1,85.4,73.1,84.6"></path><ellipse display="inline" fill="#000000" stroke="#000000" stroke-width="2" stroke-linecap="round" cx="49.8" cy="61.7" rx="7.8" ry="4.3"></ellipse><path display="inline" fill="#000000" d="M47.1,96.8c-7.1,0-15.1,0-16-9.2c-0.4-0.2-1.1-0.3-1.5-0.5c-2.1-0.6-3.6-1-3.6-2.5   c0-9.8,1.5-16.8,4.6-21.8c3.9-6.2,10.5-9.4,19.7-9.4c21.4,0,24.3,15,24.3,31.2c0,1.5-1.5,1.9-3.6,2.5c-0.4,0.1-1,0.3-1.4,0.4   c-1,9.2-9.5,9.2-19.3,9.2L47.1,96.8z M29,83.9c0.4,0.1,1,0.3,1.5,0.4c2.1,0.6,3.5,1,3.6,2.4c0.3,6.4,4.2,7.1,13,7.1l3.2,0   c10.8,0,15.9-0.3,16.4-7.1c0.1-1.4,1.5-1.8,3.5-2.4c0.4-0.1,1-0.3,1.4-0.4c-0.1-16.9-3.8-27.4-21.3-27.4   C35.6,56.5,29.2,64.7,29,83.9z"></path><path display="inline" fill="#000000" d="M31.9,84.8l2.4-13.5c0,0-0.2,5.4-0.4,8.8c-0.2,3.4,0,6.3,0,6.3L31.9,84.8z"></path><path display="inline" fill="#000000" d="M68.8,84.8l-2.4-13.5c0,0,0.2,5.4,0.4,8.8c0.2,3.4,0,6.3,0,6.3L68.8,84.8z"></path><rect x="25.6" y="15.1" display="inline" fill="none" width="49" height="81.7"></rect><path display="inline" fill="#000000" d="M50,62.4c12.6,0,22.9-10.3,22.9-22.9S62.6,16.6,50,16.6S27.1,26.9,27.1,39.5   S37.4,62.4,50,62.4"></path><path display="inline" fill="#000000" d="M50,62.4c12.6,0,22.9-10.3,22.9-22.9S62.6,16.6,50,16.6S27.1,26.9,27.1,39.5   S37.4,62.4,50,62.4"></path><circle display="inline" fill="#000000" stroke="#000000" stroke-width="3.004" cx="50" cy="39.5" r="22.9"></circle><circle display="inline" fill="#000000" stroke="#000000" stroke-width="3.004" cx="50" cy="39.5" r="22.9"></circle><line display="inline" fill="#000000" stroke="#000000" stroke-width="2.029" x1="50.3" y1="85.5" x2="50.3" y2="95.7"></line><rect x="25.6" y="15.1" display="inline" fill="none" width="49" height="81.7"></rect><g display="inline"><path fill="#000000" stroke="#000000" stroke-width="2" d="M35.9,89.1c0,0,1.3-0.3,2.2-1.2c0.9-1,1.4-2.4,1.4-2.4"></path><path fill="#000000" stroke="#000000" stroke-width="2" d="M64.7,89.1c0,0-1.3-0.3-2.2-1.2c-0.9-1-1.4-2.4-1.4-2.4"></path></g><line display="inline" fill="#000000" stroke="#000000" stroke-width="2" stroke-linecap="round" x1="33.2" y1="84.9" x2="67.8" y2="84.9"></line><path display="inline" fill="#000000" d="M30.4,30.1c0,0,9.3,10.3,18.2,11.8c9,1.4,16,0.6,16,0.6l-3-2.1c0,0,6.8,2.2,7.9,2.2   c2.1,0.1,3.5-1.2,3.5-1.2l-2.5,8.2L68.2,55c0,0,2.7-2.6,4.8-7.4s4-16,0.8-23.2c-3.9-8.9-15.2-13.2-19-13.9   c-0.5-0.1-1.1-0.3-1.1-0.3l0.3-2.6l-1.7,2.1L49,7.6l1.3,2.4c0,0-16.5,0.3-23.2,12.4c-5,9.2-2.2,23.7,0.9,27.2s3.5,3.5,3.5,3.5   S27,41.3,27.5,39C28,36.7,30.4,30.1,30.4,30.1z"></path><path display="inline" fill="#000000" d="M27.1,42.9c0,0,3.3-3.1,4.6-5.1c1.3-2,2.5-6.1,2.5-6.1l-6-2.9L27.1,42.9z"></path><g display="inline"><path fill="#000000" stroke="#000000" stroke-width="2" stroke-linecap="round" d="M46.6,57c0,0,1.3-0.7,3.3-0.7    c2.2,0,3.5,0.7,3.5,0.7"></path><path fill="#000000" d="M43,46.8c-0.4,0.4-0.6,0.9-0.6,1.5v2.6c0,1.2,1,2.2,2.2,2.2c1.2,0,2.2-1,2.2-2.2v-2.2    C45.4,48.3,44.1,47.6,43,46.8z"></path><path fill="#000000" d="M53.3,48.7v2.2c0,1.2,1,2.2,2.2,2.2s2.2-1,2.2-2.2v-2.6c0-0.6-0.2-1.1-0.6-1.5    C55.9,47.6,54.6,48.3,53.3,48.7z"></path></g></g><g display="none"><g display="inline"><path fill="#000000" d="M73.1,84.6C73.1,68.3,70,55,50.3,55c-18.7,0-22.8,13.3-22.8,29.7c0,0.7,5,1.4,5.1,2.2    c0.4,9,7.7,8.5,17.7,8.5c10,0,17.3,0,17.9-8.5C68.2,86.1,73.1,85.4,73.1,84.6"></path><ellipse fill="#000000" stroke="#000000" stroke-width="2" stroke-linecap="round" cx="49.8" cy="61.7" rx="7.8" ry="4.3"></ellipse><path fill="#000000" d="M47.1,96.8c-7.1,0-15.1,0-16-9.2c-0.4-0.2-1.1-0.3-1.5-0.5c-2.1-0.6-3.6-1-3.6-2.5    c0-9.8,1.5-16.8,4.6-21.8c3.9-6.2,10.5-9.4,19.7-9.4c21.4,0,24.3,15,24.3,31.2c0,1.5-1.5,1.9-3.6,2.5c-0.4,0.1-1,0.3-1.4,0.4    c-1,9.2-9.5,9.2-19.3,9.2L47.1,96.8z M29,83.9c0.4,0.1,1,0.3,1.5,0.4c2.1,0.6,3.5,1,3.6,2.4c0.3,6.4,4.2,7.1,13,7.1l3.2,0    c10.8,0,15.9-0.3,16.4-7.1c0.1-1.4,1.5-1.8,3.5-2.4c0.4-0.1,1-0.3,1.4-0.4c-0.1-16.9-3.8-27.4-21.3-27.4    C35.6,56.5,29.2,64.7,29,83.9z"></path><path fill="#000000" d="M32,84.8l2.4-13.5c0,0-0.2,5.4-0.4,8.8c-0.2,3.4,0,6.3,0,6.3L32,84.8z"></path><path fill="#000000" d="M68.8,84.8l-2.4-13.5c0,0,0.2,5.4,0.4,8.8c0.2,3.4,0,6.3,0,6.3L68.8,84.8z"></path><rect x="25.6" y="15.1" fill="none" width="49" height="81.7"></rect><path fill="#000000" d="M50,62.4c12.6,0,22.9-10.3,22.9-22.9S62.7,16.6,50,16.6S27.1,26.9,27.1,39.5S37.4,62.4,50,62.4"></path><path fill="#000000" d="M50,62.4c12.6,0,22.9-10.3,22.9-22.9S62.7,16.6,50,16.6S27.1,26.9,27.1,39.5S37.4,62.4,50,62.4"></path><circle fill="#000000" stroke="#000000" stroke-width="3.004" cx="50" cy="39.5" r="22.9"></circle><circle fill="#000000" stroke="#000000" stroke-width="3.004" cx="50" cy="39.5" r="22.9"></circle><line fill="#000000" stroke="#000000" stroke-width="2.029" x1="50.3" y1="85.5" x2="50.3" y2="95.7"></line><rect x="25.6" y="15.1" fill="none" width="49" height="81.7"></rect><g><path fill="#000000" d="M44.6,53.1L44.6,53.1c-1.2,0-2.2-1-2.2-2.2v-2.6c0-1.2,1-2.2,2.2-2.2h0c1.2,0,2.2,1,2.2,2.2v2.6     C46.8,52.1,45.8,53.1,44.6,53.1z"></path><path fill="#000000" d="M55.5,53.1L55.5,53.1c-1.2,0-2.2-1-2.2-2.2v-2.6c0-1.2,1-2.2,2.2-2.2h0c1.2,0,2.2,1,2.2,2.2v2.6     C57.6,52.1,56.7,53.1,55.5,53.1z"></path></g><line fill="#000000" stroke="#000000" stroke-width="2" stroke-linecap="round" x1="47.6" y1="56" x2="52.4" y2="56.9"></line><g><path fill="#000000" stroke="#000000" stroke-width="2" d="M35.9,89.1c0,0,1.3-0.3,2.2-1.2c0.9-1,1.4-2.4,1.4-2.4"></path><path fill="#000000" stroke="#000000" stroke-width="2" d="M64.7,89.1c0,0-1.3-0.3-2.2-1.2c-0.9-1-1.4-2.4-1.4-2.4"></path></g><line fill="#000000" stroke="#000000" stroke-width="2" stroke-linecap="round" x1="33.2" y1="84.9" x2="67.9" y2="84.9"></line><path fill="#000000" d="M30.4,30.1c0,0,9.3,10.3,18.2,11.8c9,1.4,16,0.6,16,0.6l-3-2.1c0,0,6.8,2.2,7.9,2.2    c2.1,0.1,3.5-1.2,3.5-1.2l-2.5,8.2L68.3,55c0,0,2.7-2.6,4.8-7.4s4-16,0.8-23.2c-3.9-8.9-15.2-13.2-19-13.9    c-0.5-0.1-1.1-0.3-1.1-0.3l0.3-2.6l-1.7,2.1L49,7.6l1.3,2.4c0,0-16.5,0.3-23.2,12.4c-5,9.2-2.2,23.7,0.9,27.2s3.5,3.5,3.5,3.5    S27,41.3,27.5,39C28,36.7,30.4,30.1,30.4,30.1z"></path><path fill="#000000" d="M27.1,42.9c0,0,3.3-3.1,4.6-5.1c1.3-2,2.5-6.1,2.5-6.1l-6-2.9L27.1,42.9z"></path><polygon fill="#000000" points="39.2,48 48.3,48 44,43   "></polygon><g><g><path d="M45-7.3c0-2.8,2.5-3.9,5-3.9c2.5,0,5.1,1,5,3.9c0,2.6-2,3.1-3.1,3.6c-1.3,0.5-1.6,0.9-1.6,2.6h-1.6      c0-2.5,0.8-3.3,2.5-3.9c1-0.4,2.1-0.8,2.1-2.4c0-2-2-2.4-3.5-2.4c-1.5,0-3.3,0.6-3.3,2.5H45z M50.7,2.7c0,1.4-2.2,1.4-2.2,0      C48.5,1.2,50.7,1.2,50.7,2.7z"></path></g><g><path fill="none" stroke="#000000" stroke-width="1.5673" stroke-linecap="round" stroke-linejoin="round" d="M45-7.3      c0-2.8,2.5-3.9,5-3.9c2.5,0,5.1,1,5,3.9c0,2.6-2,3.1-3.1,3.6c-1.3,0.5-1.6,0.9-1.6,2.6h-1.6c0-2.5,0.8-3.3,2.5-3.9      c1-0.4,2.1-0.8,2.1-2.4c0-2-2-2.4-3.5-2.4c-1.5,0-3.3,0.6-3.3,2.5H45z M50.7,2.7c0,1.4-2.2,1.4-2.2,0      C48.5,1.2,50.7,1.2,50.7,2.7z"></path></g></g><g><g><path d="M55.8-0.6c0-1.8,1.6-2.5,3.2-2.5c1.6,0,3.2,0.6,3.2,2.5c0,1.7-1.2,2-2,2.3c-0.8,0.3-1,0.6-1,1.7h-1      c0-1.6,0.5-2.1,1.6-2.5c0.7-0.3,1.4-0.5,1.4-1.5c0-1.3-1.2-1.5-2.2-1.5c-0.9,0-2.1,0.4-2.1,1.6H55.8z M59.4,5.7      c0,0.9-1.4,0.9-1.4,0C58.1,4.8,59.4,4.8,59.4,5.7z"></path></g><g><path fill="none" stroke="#000000" stroke-linecap="round" stroke-linejoin="round" d="M55.8-0.6c0-1.8,1.6-2.5,3.2-2.5      c1.6,0,3.2,0.6,3.2,2.5c0,1.7-1.2,2-2,2.3c-0.8,0.3-1,0.6-1,1.7h-1c0-1.6,0.5-2.1,1.6-2.5c0.7-0.3,1.4-0.5,1.4-1.5      c0-1.3-1.2-1.5-2.2-1.5c-0.9,0-2.1,0.4-2.1,1.6H55.8z M59.4,5.7c0,0.9-1.4,0.9-1.4,0C58.1,4.8,59.4,4.8,59.4,5.7z"></path></g></g><g><g><path d="M39.9,0c0-1.3,1.1-1.7,2.2-1.7c1.1,0,2.3,0.4,2.2,1.7c0,1.2-0.9,1.4-1.4,1.6c-0.6,0.2-0.7,0.4-0.7,1.2h-0.7      c0-1.1,0.4-1.5,1.1-1.7c0.5-0.2,1-0.4,1-1.1c0-0.9-0.9-1.1-1.6-1.1c-0.7,0-1.5,0.3-1.5,1.1H39.9z M42.5,4.5c0,0.6-1,0.6-1,0      C41.5,3.8,42.5,3.8,42.5,4.5z"></path></g><g><path fill="none" stroke="#000000" stroke-width="0.699" stroke-linecap="round" stroke-linejoin="round" d="M39.9,0      c0-1.3,1.1-1.7,2.2-1.7c1.1,0,2.3,0.4,2.2,1.7c0,1.2-0.9,1.4-1.4,1.6c-0.6,0.2-0.7,0.4-0.7,1.2h-0.7c0-1.1,0.4-1.5,1.1-1.7      c0.5-0.2,1-0.4,1-1.1c0-0.9-0.9-1.1-1.6-1.1c-0.7,0-1.5,0.3-1.5,1.1H39.9z M42.5,4.5c0,0.6-1,0.6-1,0      C41.5,3.8,42.5,3.8,42.5,4.5z"></path></g></g></g></g><g display="none"><g display="inline"><path fill="#000000" d="M73.1,84.6C73.1,68.3,70,55,50.3,55c-18.7,0-22.8,13.3-22.8,29.7c0,0.7,5,1.4,5.1,2.2    c0.4,9,7.7,8.5,17.7,8.5c10,0,17.3,0,17.9-8.5C68.2,86.1,73.1,85.4,73.1,84.6"></path><ellipse fill="#000000" stroke="#000000" stroke-width="2" stroke-linecap="round" cx="49.8" cy="61.7" rx="7.8" ry="4.3"></ellipse><path fill="#000000" d="M47.1,96.8c-7.1,0-15.1,0-16-9.2c-0.4-0.2-1.1-0.3-1.5-0.5c-2.1-0.6-3.6-1-3.6-2.5    c0-9.8,1.5-16.8,4.6-21.8c3.9-6.2,10.5-9.4,19.7-9.4c21.4,0,24.3,15,24.3,31.2c0,1.5-1.5,1.9-3.6,2.5c-0.4,0.1-1,0.3-1.4,0.4    c-1,9.2-9.5,9.2-19.3,9.2L47.1,96.8z M29,83.9c0.4,0.1,1,0.3,1.5,0.4c2.1,0.6,3.5,1,3.6,2.4c0.3,6.4,4.2,7.1,13,7.1l3.2,0    c10.8,0,15.9-0.3,16.4-7.1c0.1-1.4,1.5-1.8,3.5-2.4c0.4-0.1,1-0.3,1.4-0.4c-0.1-16.9-3.8-27.4-21.3-27.4    C35.6,56.5,29.2,64.7,29,83.9z"></path><path fill="#000000" d="M32,84.8l2.4-13.5c0,0-0.2,5.4-0.4,8.8c-0.2,3.4,0,6.3,0,6.3L32,84.8z"></path><path fill="#000000" d="M68.8,84.8l-2.4-13.5c0,0,0.2,5.4,0.4,8.8c0.2,3.4,0,6.3,0,6.3L68.8,84.8z"></path><rect x="25.6" y="15.1" fill="none" width="49" height="81.7"></rect><path fill="#000000" d="M50,62.4c12.6,0,22.9-10.3,22.9-22.9S62.7,16.6,50,16.6S27.1,26.9,27.1,39.5S37.4,62.4,50,62.4"></path><path fill="#000000" d="M50,62.4c12.6,0,22.9-10.3,22.9-22.9S62.7,16.6,50,16.6S27.1,26.9,27.1,39.5S37.4,62.4,50,62.4"></path><circle fill="#000000" stroke="#000000" stroke-width="3.004" cx="50" cy="39.5" r="22.9"></circle><circle fill="#000000" stroke="#000000" stroke-width="3.004" cx="50" cy="39.5" r="22.9"></circle><line fill="#000000" stroke="#000000" stroke-width="2.029" x1="50.3" y1="85.5" x2="50.3" y2="95.7"></line><rect x="25.6" y="15.1" fill="none" width="49" height="81.7"></rect><g><path fill="#000000" stroke="#000000" stroke-width="2" d="M35.9,89.1c0,0,1.3-0.3,2.2-1.2c0.9-1,1.4-2.4,1.4-2.4"></path><path fill="#000000" stroke="#000000" stroke-width="2" d="M64.7,89.1c0,0-1.3-0.3-2.2-1.2c-0.9-1-1.4-2.4-1.4-2.4"></path></g><line fill="#000000" stroke="#000000" stroke-width="2" stroke-linecap="round" x1="33.2" y1="84.9" x2="67.9" y2="84.9"></line><path fill="#000000" d="M30.4,30.1c0,0,9.3,10.3,18.2,11.8c9,1.4,16,0.6,16,0.6l-3-2.1c0,0,6.8,2.2,7.9,2.2    c2.1,0.1,3.5-1.2,3.5-1.2l-2.5,8.2L68.3,55c0,0,2.7-2.6,4.8-7.4s4-16,0.8-23.2c-3.9-8.9-15.2-13.2-19-13.9    c-0.5-0.1-1.1-0.3-1.1-0.3l0.3-2.6l-1.7,2.1L49,7.6l1.3,2.4c0,0-16.5,0.3-23.2,12.4c-5,9.2-2.2,23.7,0.9,27.2s3.5,3.5,3.5,3.5    S27,41.3,27.5,39C28,36.7,30.4,30.1,30.4,30.1z"></path><path fill="#000000" d="M27.1,42.9c0,0,3.3-3.1,4.6-5.1c1.3-2,2.5-6.1,2.5-6.1l-6-2.9L27.1,42.9z"></path><path fill="#000000" stroke="#000000" stroke-width="2" stroke-linecap="round" d="M46.6,56.3c0,0,1.3,0.7,3.3,0.7    c2.2,0,3.5-0.7,3.5-0.7"></path><path fill="#000000" d="M57.6,72.7c0-2.1-1.8-3.9-4-3.9c-1.5,0-2.9,0.9-3.5,2.1c-0.7-1.3-2-2.1-3.5-2.1c-2.2,0-4,1.7-4,3.9    c0,0,0,0,0,0c0,0.4,0,4.5,7.5,8.8l0,0c0,0,0,0,0,0c0,0,0,0,0,0l0,0C58.1,77,57.6,72.7,57.6,72.7z"></path><path fill="#000000" d="M47.4,48c0-1.1-0.9-2-2-2c-0.8,0-1.5,0.4-1.8,1.1c-0.3-0.6-1-1.1-1.8-1.1c-1.1,0-2,0.9-2,2c0,0,0,0,0,0    c0,0.2,0,2.3,3.8,4.5l0,0c0,0,0,0,0,0c0,0,0,0,0,0l0,0C47.7,50.2,47.4,48,47.4,48z"></path><path fill="#000000" d="M60.3,48c0-1.1-0.9-2-2-2c-0.8,0-1.5,0.4-1.8,1.1c-0.3-0.6-1-1.1-1.8-1.1c-1.1,0-2,0.9-2,2c0,0,0,0,0,0    c0,0.2,0,2.3,3.8,4.5l0,0c0,0,0,0,0,0c0,0,0,0,0,0l0,0C60.5,50.2,60.3,48,60.3,48z"></path></g></g></svg>