<svg height='300px' width='300px'  fill="#000000" xmlns="http://www.w3.org/2000/svg" xmlns:xlink="http://www.w3.org/1999/xlink" xml:space="preserve" style="shape-rendering:geometricPrecision;text-rendering:geometricPrecision;image-rendering:optimizeQuality;" viewBox="0 0 7.086 5.10537" x="0px" y="0px" fill-rule="evenodd" clip-rule="evenodd"><defs><style type="text/css">
   
    .fil1 {fill:#000000}
    .fil0 {fill:#000000;fill-rule:nonzero}
   
  </style></defs><g><path class="fil0" d="M1.97083 1.30572l2.21233 -1.02451c0.0956013,-0.171702 0.277104,-0.281204 0.476307,-0.281204l0.545308 0 0 1.66792c0.242103,0.0804011 0.407406,0.307204 0.407406,0.564108 0,0.256004 -0.165402,0.483507 -0.407406,0.564008l0 1.66792 -0.545308 0c-0.199203,0 -0.380705,-0.109302 -0.476307,-0.281004l-2.21213 -1.02461 -0.073801 0 0.224603 1.62582c0.0174002,0.127102 -0.071701,0.244303 -0.198703,0.262104l-0.397206 0.0546008c-0.335105,0.0405006 -0.644309,-0.197903 -0.69051,-0.532208 -0.0649009,-0.470207 -0.130002,-0.940113 -0.195003,-1.41032l-0.169502 0c-0.259204,0 -0.470907,-0.211703 -0.470907,-0.471007l0 -0.910513c0,-0.258704 0.212403,-0.471107 0.470907,-0.471107l1.49992 0zm2.42543 -0.257504c0,0.186503 -0.282104,0.186503 -0.282104,0l0 -0.424906 -2.10783 0.976214c0,0.280204 0,0.560308 0,0.840512 0,0.186503 -0.282004,0.186503 -0.282004,0 0,-0.284104 0,-0.568208 0,-0.852212l-1.25342 0c-0.104301,0 -0.188903,0.0846012 -0.188903,0.189003l0 0.910513c0,0.103601 0.0855012,0.189003 0.188903,0.189003 0.513207,0 1.02461,-0.00240003 1.53542,-0.00240003l2.10783 0.966814c0,-0.68521 0,-1.37052 0,-2.05573 0,-0.186503 0.282104,-0.186503 0.282104,0 0,0.71121 0,1.42252 0,2.13363 0,0.145002 0.118202,0.263204 0.263204,0.263204l0.263304 0c0,-1.29992 0,-2.59974 0,-3.89966l-0.263304 0c-0.144802,0 -0.263204,0.118302 -0.263204,0.263104 0,0.167702 0,0.335205 0,0.502907zm-3.48545 2.11013l0.185403 1.37652c0.0278004,0.193903 0.211003,0.330905 0.404806,0.304204l0.356405 -0.0492007 -0.220603 -1.63152 -0.72601 0zm4.29396 -1.17752l0 0.502307c0.0796011,-0.0598008 0.125302,-0.151102 0.125302,-0.251104 0,-0.0984014 -0.0471007,-0.193103 -0.125302,-0.251204z"></path><path class="fil1" d="M5.88248 2.36373c-0.174102,0 -0.174202,-0.263504 0,-0.263504 0.357505,0 0.71521,0 1.07272,0 0.174302,0 0.174302,0.263504 0,0.263504 -0.357505,0 -0.71521,0 -1.07272,0z"></path><path class="fil1" d="M5.89138 1.73162l-0.114202 0.114202c-0.123302,0.123302 -0.309504,-0.0630009 -0.186303,-0.186203l0.114302 -0.114302c0.123202,-0.123202 0.309404,0.0631009 0.186203,0.186303z"></path><path class="fil1" d="M6.53569 1.08742l-0.381605 0.381505c-0.123202,0.123202 -0.309504,-0.0631009 -0.186303,-0.186303l0.381505 -0.381605c0.123202,-0.123202 0.309604,0.0632009 0.186403,0.186403z"></path><path class="fil1" d="M5.70518 2.91864l-0.114302 -0.114302c-0.123202,-0.123202 0.0630009,-0.309504 0.186303,-0.186303l0.114202 0.114302c0.123202,0.123202 -0.0630009,0.309504 -0.186203,0.186303z"></path><path class="fil1" d="M6.34929 3.56295l-0.381505 -0.381605c-0.123202,-0.123202 0.0631009,-0.309504 0.186303,-0.186303l0.381605 0.381505c0.123202,0.123202 -0.0632009,0.309604 -0.186403,0.186403z"></path><path class="fil1" d="M0.633209 1.83233l0 0.335305c0,0.114902 -0.173802,0.114902 -0.173802,0l0 -0.335305c0,-0.114902 0.173802,-0.114902 0.173802,0z"></path><path class="fil1" d="M0.931113 1.83233l0 0.335305c0,0.114902 -0.173802,0.114902 -0.173802,0l0 -0.335305c0,-0.114902 0.173802,-0.114902 0.173802,0z"></path></g></svg>