<svg height='300px' width='300px'  fill="#000000" xmlns="http://www.w3.org/2000/svg" xmlns:xlink="http://www.w3.org/1999/xlink" version="1.1" x="0px" y="0px" viewBox="0 0 100 100" style="enable-background:new 0 0 100 100;" xml:space="preserve"><path d="M76,81c5,0,9-4,9-9c0-4.2-2.9-7.8-6.8-8.7c-1.4-2.6-3.8-8.1-4.8-17.3L73,40.9c0-9.7-6.1-18.5-15-22.1  c-0.1-4.9-4.1-8.8-9-8.8s-8.9,3.9-9,8.8c-8.9,3.6-15,12.4-15,22.1L24.6,46c-1,9.2-3.4,14.7-4.8,17.3c-3.9,1-6.8,4.5-6.8,8.7  c0,5,4,9,9,9h15.7c1.1,5.4,5.7,9.5,11.3,9.5s10.2-4.1,11.3-9.5H76z M49,16c1.3,0,2.4,0.8,2.8,2h-5.6C46.6,16.8,47.7,16,49,16z   M31,41.2l0-0.2c0-7.7,5-14.5,12.2-17h11.7C62,26.5,67,33.3,67,41l0.4,5.4l0,0.1c0.8,7.4,2.4,12.8,4,16.4H26.6c1.5-3.7,3.2-9,4-16.4  L31,41.2z M19,72c0-1.6,1.2-2.9,2.8-3l0.2,0h53.9l0.2,0c1.6,0.1,2.8,1.4,2.8,3c0,1.7-1.3,3-3,3H60.3H37.7H22C20.3,75,19,73.7,19,72z   M49,84.5c-2.2,0-4.2-1.5-5-3.5H54C53.2,83.1,51.2,84.5,49,84.5z"></path></svg>