<svg height='300px' width='300px'  fill="#000000" xmlns:dc="http://purl.org/dc/elements/1.1/" xmlns:cc="http://creativecommons.org/ns#" xmlns:rdf="http://www.w3.org/1999/02/22-rdf-syntax-ns#" xmlns:svg="http://www.w3.org/2000/svg" xmlns="http://www.w3.org/2000/svg" xmlns:sodipodi="http://sodipodi.sourceforge.net/DTD/sodipodi-0.dtd" xmlns:inkscape="http://www.inkscape.org/namespaces/inkscape" version="1.1" x="0px" y="0px" viewBox="0 0 100 100"><g transform="translate(0,-952.36218)"><path style="text-indent:0;text-transform:none;direction:ltr;block-progression:tb;baseline-shift:baseline;color:#000000;enable-background:accumulate;" d="m 49.867179,957.40505 c -1.577798,0.0163 -2.994864,1.47967 -2.962069,3.05892 l 0,13.98363 c -0.02237,1.58308 1.41172,3.03916 2.993248,3.03916 1.581529,0 3.015613,-1.45608 2.993248,-3.03916 l 0,-13.98363 c 0.03323,-1.60006 -1.425845,-3.07578 -3.024427,-3.05892 z m -30.244276,12.01718 c -1.120645,0.12027 -2.138511,0.93013 -2.508524,1.99588 -0.370013,1.06575 -0.07328,2.333 0.731283,3.12313 l 9.977493,9.9883 c 1.072882,1.23003 3.206157,1.30618 4.363828,0.15577 1.157671,-1.1504 1.09735,-3.28649 -0.123394,-4.36958 l -9.977493,-9.98831 c -0.627212,-0.65363 -1.562509,-0.99734 -2.463193,-0.90519 z m 59.864958,0 c -0.671809,0.0887 -1.310109,0.41378 -1.777241,0.90519 l -9.977493,9.98831 c -1.220743,1.08309 -1.281064,3.21918 -0.123393,4.36958 1.15767,1.15041 3.290946,1.07426 4.363828,-0.15577 l 9.977493,-9.9883 c 0.890832,-0.86959 1.147032,-2.32399 0.607059,-3.44616 -0.539973,-1.12217 -1.835731,-1.82818 -3.070253,-1.67285 z m -29.558323,11.01835 c -12.101498,0 -21.981665,9.8747 -21.981665,21.97432 0,12.0995 9.880167,21.9742 21.981665,21.9742 12.101498,0 21.919305,-9.8837 21.919305,-21.9742 0,-12.09063 -9.817807,-21.97432 -21.919305,-21.97432 z m 0,5.99298 c 8.864143,0 15.932809,7.10957 15.932809,15.98134 0,8.8717 -7.068666,15.9812 -15.932809,15.9812 -8.864144,0 -15.995169,-7.1185 -15.995169,-15.9812 0,-8.86279 7.131025,-15.98134 15.995169,-15.98134 z m 0.03118,1.99766 c -7.688691,0 -14.03085,6.28491 -14.03085,13.98368 -0.02237,1.583 1.411719,3.0391 2.993248,3.0391 1.581528,0 3.015612,-1.4561 2.993248,-3.0391 0,-4.43741 3.584069,-7.99069 8.044354,-7.99069 1.58137,0.0224 3.035877,-1.41325 3.035877,-2.99649 0,-1.58325 -1.454507,-3.01888 -3.035877,-2.9965 z M 7.6810905,999.41836 c -1.5674484,0.0815 -2.9195055,1.58344 -2.8378683,3.15254 0.081637,1.5692 1.5822449,2.9224 3.149665,2.8404 l 13.9684908,0 c 1.58137,0.022 3.035877,-1.4132 3.035877,-2.9964 0,-1.5833 -1.454507,-3.01893 -3.035877,-2.99654 -4.747077,-10e-6 -9.557825,0 -14.2802875,0 z m 69.8424515,0 c -1.567448,0.0815 -2.919505,1.58344 -2.837868,3.15254 0.08164,1.5692 1.582245,2.9224 3.149665,2.8404 l 13.96849,0 c 1.581371,0.022 3.035878,-1.4132 3.035878,-2.9964 0,-1.5833 -1.454507,-3.01893 -3.035878,-2.99654 -4.747076,-10e-6 -9.557824,0 -14.280287,0 z m -47.923146,19.94544 c -0.67181,0.089 -1.31011,0.4137 -1.777241,0.9051 -1.251327,1.2528 -4.00678,4.0112 -9.977493,9.9884 -1.220744,1.083 -1.281065,3.2191 -0.123394,4.3695 1.157671,1.1504 3.290946,1.0743 4.363828,-0.1557 5.970702,-5.9772 8.726091,-8.7356 9.977493,-9.9883 0.890833,-0.8696 1.147033,-2.324 0.60706,-3.4462 -0.539974,-1.1222 -1.835731,-1.8282 -3.070253,-1.6728 z m 39.909972,0 c -1.120644,0.1202 -2.138511,0.9301 -2.508523,1.9958 -0.370014,1.0658 -0.07328,2.333 0.731282,3.1232 1.251402,1.2527 4.006792,4.0111 9.977493,9.9883 1.072882,1.23 3.206158,1.3061 4.363829,0.1557 1.15767,-1.1504 1.097349,-3.2865 -0.123394,-4.3695 -5.970714,-5.9772 -8.726167,-8.7356 -9.977493,-9.9884 -0.627212,-0.6536 -1.56251,-0.9973 -2.463194,-0.9051 z m -19.643189,7.9594 c -1.577798,0.016 -2.994864,1.4797 -2.962069,3.0589 l 0,13.9836 c -0.02237,1.5831 1.41172,3.0392 2.993248,3.0392 1.581529,0 3.015613,-1.4561 2.993248,-3.0392 l 0,-13.9836 c 0.03323,-1.6 -1.425845,-3.0758 -3.024427,-3.0589 z" fill="#000000" fill-opacity="1" stroke="none" marker="none" visibility="visible" display="inline" overflow="visible"></path></g></svg>