<svg height='300px' width='300px'  fill="#000000" xmlns="http://www.w3.org/2000/svg" xmlns:xlink="http://www.w3.org/1999/xlink" version="1.1" x="0px" y="0px" viewBox="0 0 100 100" enable-background="new 0 0 100 100" xml:space="preserve"><path d="M50,83.101c-2.251,0-3.3,1.049-3.3,3.3s1.048,3.3,3.3,3.3c2.252,0,3.3-1.049,3.3-3.3S52.252,83.101,50,83.101z M78,4.7H22  c-3.364,0-6.1,2.736-6.1,6.101V89.2c0,3.363,2.736,6.1,6.1,6.1h56c3.363,0,6.1-2.736,6.1-6.1V10.801C84.1,7.437,81.363,4.7,78,4.7z   M80.3,89.2c0,1.269-1.032,2.301-2.3,2.301H22c-1.268,0-2.3-1.032-2.3-2.301V10.801C19.7,9.532,20.732,8.5,22,8.5h56  c1.268,0,2.3,1.032,2.3,2.301V89.2z M21.5,81.3h57V13.101h-57V81.3z M25.3,16.9h49.399v60.601H25.3V16.9z"></path></svg>