<svg height='300px' width='300px'  fill="#000000" xmlns="http://www.w3.org/2000/svg" xmlns:xlink="http://www.w3.org/1999/xlink" version="1.1" x="0px" y="0px" viewBox="0 0 100 100" enable-background="new 0 0 100 100" xml:space="preserve"><path d="M94.283,14.559c-0.25-1.38-1.451-2.384-2.854-2.384h-9.823c-0.138-3.116-0.4-5.011-0.413-5.1  c-0.07-0.472-0.478-0.822-0.956-0.822H18.822c-0.478,0-0.885,0.35-0.955,0.822c-0.014,0.089-0.275,1.983-0.413,5.1H8.105  c-1.402,0-2.604,1.003-2.853,2.384c-0.147,0.821-3.491,20.265,8.195,34.246c4.233,5.066,9.896,8.664,16.83,10.872  c3.637,5.04,8.258,9.779,14.154,13.834c1.107,1.412,2.177,3.974,1.229,8.27c-1.387,6.27-4.602,6.613-5.247,6.579  c-0.275-0.038-0.549,0.053-0.755,0.238c-0.206,0.183-0.325,0.445-0.325,0.721v4.125c0,0.531,0.432,0.965,0.966,0.965h18.461  c0.534,0,0.967-0.434,0.967-0.965v-4.125c0-0.275-0.155-0.536-0.36-0.721c-0.206-0.182-0.512-0.269-0.791-0.238  c-0.62,0-3.79-0.317-5.174-6.581c-0.952-4.294,0.119-6.854,1.227-8.268c5.816-3.999,10.389-8.667,14.004-13.632  c7.226-2.187,13.094-5.855,17.456-11.075C97.773,34.823,94.431,15.379,94.283,14.559z M17.92,45.12  c-7.762-9.26-7.67-21.938-7.24-27.149h6.719c0.202,8.615,1.734,21.147,7.715,33.166C22.333,49.5,19.92,47.506,17.92,45.12z   M81.642,45.087c-2.17,2.597-4.816,4.742-7.909,6.455c6.15-12.142,7.725-24.859,7.928-33.571h7.2  C89.303,23.167,89.411,35.792,81.642,45.087z"></path></svg>