<svg height='300px' width='300px'  fill="#000000" xmlns:dc="http://purl.org/dc/elements/1.1/" xmlns:cc="http://creativecommons.org/ns#" xmlns:rdf="http://www.w3.org/1999/02/22-rdf-syntax-ns#" xmlns:svg="http://www.w3.org/2000/svg" xmlns="http://www.w3.org/2000/svg" xmlns:sodipodi="http://sodipodi.sourceforge.net/DTD/sodipodi-0.dtd" xmlns:inkscape="http://www.inkscape.org/namespaces/inkscape" version="1.1" x="0px" y="0px" viewBox="0 0 100 100"><g transform="translate(0,-952.36218)"><path style="text-indent:0;text-transform:none;direction:ltr;block-progression:tb;baseline-shift:baseline;color:#000000;enable-background:accumulate;" d="M 49.995,958.36215 C 25.7191,958.36215 6,978.08133 6,1002.3572 c 0,24.2853 19.7191,44.005 43.995,44.005 24.2757,0 44.005,-19.7191 44.005,-44.005 0,-24.27645 -19.7293,-43.99505 -44.005,-43.99505 z m 1.9996,4.68031 c 1.3092,0.3977 2.6129,1.19509 3.9235,2.42657 1.976,1.85668 3.8827,4.68983 5.499,8.28156 0.549,1.21992 1.0636,2.52791 1.5413,3.91094 l -10.9638,0 z m -3.9996,6.3e-4 0,14.61844 -10.9607,0 c 0.478,-1.38294 0.9927,-2.69107 1.5419,-3.91094 1.6169,-3.59181 3.5243,-6.42476 5.5,-8.28156 1.3096,-1.23079 2.6117,-2.02807 3.9188,-2.42594 z m -7.6207,0.48031 c -2.0929,2.24951 -3.9034,5.16098 -5.445,8.58531 -0.7763,1.72453 -1.484,3.58145 -2.1162,5.55282 l -14.2972,0 c 5.4193,-6.90223 13.063,-11.97208 21.8584,-14.13813 z m 19.2463,9.4e-4 c 8.7946,2.16671 16.4388,7.23606 21.8594,14.13719 l -14.3004,0 c -0.6318,-1.97127 -1.3392,-3.82802 -2.1153,-5.5525 -1.5408,-3.4239 -3.3508,-6.33521 -5.4437,-8.58469 z m -43.8697,18.13687 15.925,0 c -1.4082,5.61173 -2.2501,11.95142 -2.3894,18.69629 l -19.2378,0 c 0.3349,-6.82434 2.3742,-13.19517 5.7022,-18.69629 z m 20.0653,0 12.1788,0 0,18.69629 -14.7079,0 c 0.1503,-6.83004 1.065,-13.20924 2.5291,-18.69629 z m 16.1784,0 12.1813,0 c 1.4631,5.48698 2.3765,11.86621 2.5265,18.69629 l -14.7078,0 z m 16.3216,0 15.9297,0 c 3.3295,5.50121 5.3702,11.87196 5.7053,18.69629 l -19.2481,0 c -0.1392,-6.74483 -0.9797,-13.08451 -2.3869,-18.69629 z m -58.2675,22.69559 19.2378,0 c 0.1372,6.6451 0.9553,12.897 2.325,18.4466 l -16.0144,0 c -3.237,-5.4438 -5.2189,-11.7248 -5.5484,-18.4466 z m 23.2384,0 14.7079,0 0,18.4466 -12.2469,0 c -1.4245,-5.4305 -2.3131,-11.7196 -2.461,-18.4466 z m 18.7075,0 14.7078,0 c -0.1476,6.727 -1.0349,13.0162 -2.4584,18.4466 l -12.2494,0 z m 18.7085,0 19.2481,0 c -0.3297,6.7219 -2.313,13.003 -5.5516,18.4469 -0.0037,-1e-4 -0.0075,-2e-4 -0.0112,-3e-4 l -16.0078,0 c 1.3688,-5.5496 2.1855,-11.8015 2.3225,-18.4466 z m -52.3875,22.4463 14.4168,0 c 0.6527,2.0671 1.3871,4.0117 2.1969,5.811 1.5417,3.4252 3.3524,6.3373 5.4457,8.5871 -8.9049,-2.1928 -16.6287,-7.3628 -22.0594,-14.3981 z m 18.63,0 11.0494,0 0,14.8781 c -1.3071,-0.3978 -2.6092,-1.195 -3.9188,-2.4259 -1.9757,-1.8569 -3.8827,-4.6904 -5.4997,-8.2828 -0.5832,-1.2958 -1.1283,-2.6903 -1.6309,-4.1694 z m 15.049,0 11.0525,0 c -0.5023,1.4792 -1.0469,2.8739 -1.63,4.1697 -1.6163,3.5923 -3.523,6.4257 -5.499,8.2825 -1.3106,1.2316 -2.6143,2.0289 -3.9235,2.4266 z m 15.2654,0 14.42,0 c -5.4319,7.034 -13.156,12.2033 -22.0597,14.3969 2.0931,-2.2497 3.9035,-5.1616 5.4443,-8.5863 0.8095,-1.7991 1.5431,-3.7436 2.1954,-5.8106 z" fill="#000000" fill-opacity="1" fill-rule="evenodd" stroke="none" marker="none" visibility="visible" display="inline" overflow="visible"></path></g></svg>