<svg height='300px' width='300px'  fill="#000000" xmlns="http://www.w3.org/2000/svg" xmlns:xlink="http://www.w3.org/1999/xlink" version="1.1" x="0px" y="0px" viewBox="0 0 100 100" enable-background="new 0 0 100 100" xml:space="preserve"><path d="M38.1144028,11.6087198c0.2158203,0.5083008-0.0214844,1.0952148-0.5297852,1.3110352  c-0.1274414,0.0541992-0.2597656,0.0800781-0.3901367,0.0800781c-0.3891602,0-0.7592773-0.2290039-0.9208984-0.6098633  l-2.8623047-6.7436523c-0.2158203-0.5083008,0.0214844-1.0952148,0.5297852-1.3110352  c0.5068359-0.2167969,1.0952148,0.0209961,1.3110352,0.5297852L38.1144028,11.6087198z M20.9635239,28.826004l-6.8393555-2.625  c-0.5180664-0.1982422-1.09375,0.0600586-1.2919922,0.5751953c-0.1977539,0.515625,0.0595703,1.0942383,0.5751953,1.2919922  l6.8393555,2.625c0.1181641,0.0454102,0.2392578,0.0668945,0.3583984,0.0668945  c0.4018555,0,0.7807617-0.2446289,0.9335938-0.6420898C21.7364731,29.6023712,21.4791489,29.0237579,20.9635239,28.826004z   M66.059227,4.3352823c-0.5078125-0.2143555-1.0947266,0.0205078-1.3115234,0.5297852l-2.8623047,6.7436523  c-0.2158203,0.5083008,0.0214844,1.0952148,0.5302734,1.3110352c0.1279297,0.0541992,0.2597656,0.0800781,0.390625,0.0800781  c0.3886719,0,0.7587891-0.2290039,0.9208984-0.6098633l2.8623047-6.7436523  C66.8053207,5.1380167,66.5680161,4.5511026,66.059227,4.3352823z M87.1676254,26.7761993  c-0.1982422-0.515625-0.7763672-0.7744141-1.2919922-0.5751953l-6.8388672,2.625  c-0.515625,0.1977539-0.7734375,0.7763672-0.5751953,1.2919922c0.1523438,0.3974609,0.5322266,0.6420898,0.9335938,0.6420898  c0.1191406,0,0.2402344-0.0214844,0.3583984-0.0668945l6.8388672-2.625  C87.1080551,27.8704376,87.3658676,27.2918243,87.1676254,26.7761993z M79.5562973,66.1892853  c0,16.296875-13.2587891,29.5556641-29.5566406,29.5556641c-16.296875,0-29.5556641-13.2587891-29.5556641-29.5556641  c0-11.0504761,6.0997925-20.697876,15.1052246-25.7683105l-6.3479004-7.6330566  c-1.0727539-1.2900391-1.1787109-3.1020508-0.2626953-4.5083008l4.7714844-7.324707  c0.7045898-1.081543,1.8964844-1.7275391,3.1875-1.7275391h26.0512695c1.2695313,0,2.4511719,0.6298828,3.1591797,1.6855469  l4.9257813,7.347168c0.9326172,1.3911133,0.8359375,3.2626953-0.2353516,4.550293l-6.3352661,7.6177979  C73.4621201,45.5005035,79.5562973,55.1439362,79.5562973,66.1892853z M69.0912094,31.7361603h-8.3925171l-8.9436035,20.8457642  L69.0912094,31.7361603z M47.0846176,54.2918243l-6.2623901-7.5302734  c-7.277771,3.4526978-12.3347778,10.8511963-12.3347778,19.4277344c0,11.8623047,9.6503906,21.5126953,21.512207,21.5126953  c11.8623047,0,21.5126953-9.6503906,21.5126953-21.5126953c0-8.5712891-5.0508423-15.9658203-12.3215942-19.4212646  l-6.2575073,7.524292c-0.7246094,0.871582-1.7910156,1.371582-2.9248047,1.371582  C48.8756332,55.6638947,47.809227,55.1638947,47.0846176,54.2918243z M48.9996567,31.7361603h-7.5227051l7.5227051,17.5344849  V31.7361603z M58.5226669,31.7361603h-7.5230103v17.534668L58.5226669,31.7361603z M64.7014999,22.4063873l-3.1447754,7.3297729  h7.9801636c-0.0473633-0.1237793-0.0892944-0.2498169-0.1651611-0.362793L64.7014999,22.4063873z M56.2909775,21.2273712  l3.5975342,7.3251953l3.1386719-7.3154907c-0.0265503-0.0011597-0.0515747-0.0097046-0.0783081-0.0097046H56.2909775z   M54.8545761,22.8391876l-3.3880005,6.8969727h6.7752075L54.8545761,22.8391876z M46.5820541,21.2273712l3.4176025,6.9580078  l3.4185181-6.9580078H46.5820541z M45.1457138,22.8391876l-3.387207,6.8969727h6.7752075L45.1457138,22.8391876z   M36.9684677,21.2273712l3.1429443,7.3258667l3.5979004-7.3258667H36.9684677z M30.4522934,29.7361603h7.9906616  l-3.2029419-7.4655762l-4.6256104,7.1008301C30.5395737,29.4862823,30.498497,29.6121368,30.4522934,29.7361603z   M48.2245102,52.5358429l-8.9235229-20.7996826h-8.3731689L48.2245102,52.5358429z M77.5562973,66.1892853  c0-10.428772-5.8244019-19.5222168-14.3904419-24.2011108l-2.6466064,3.182373  c7.6963501,3.8678589,12.993103,11.8341675,12.993103,21.0187378c0,12.9648438-10.5478516,23.5126953-23.5126953,23.5126953  s-23.512207-10.5478516-23.512207-23.5126953c0-9.1898804,5.3025513-17.1602173,13.0059814-21.0255737l-2.6470337-3.1828613  c-8.5728149,4.6768188-14.4024048,13.7744141-14.4024048,24.2084351c0,15.1943359,12.3613281,27.5556641,27.5556641,27.5556641  S77.5562973,81.3836212,77.5562973,66.1892853z"></path></svg>