<svg height='300px' width='300px'  fill="#000000" xmlns="http://www.w3.org/2000/svg" xmlns:xlink="http://www.w3.org/1999/xlink" version="1.1" x="0px" y="0px" viewBox="0 0 100 100" enable-background="new 0 0 100 100" xml:space="preserve"><g><path d="M46.777,39.341c0-2.536-1.269-4.591-2.833-4.591c-1.565,0-2.833,2.055-2.833,4.591s1.268,4.591,2.833,4.591   C45.508,43.932,46.777,41.877,46.777,39.341 M59.282,39.341c0-2.536-1.27-4.591-2.833-4.591c-1.566,0-2.833,2.055-2.833,4.591   s1.267,4.591,2.833,4.591C58.012,43.932,59.282,41.877,59.282,39.341 M65.586,45.883c0.324-0.35,0.303-0.896-0.046-1.221   s-0.895-0.305-1.22,0.045c-0.002,0-0.314,0.34-0.952,0.885c-1.921,1.65-6.583,4.953-12.824,4.947c-4.198,0-7.73-1.242-10.212-2.49   c-1.242-0.624-2.218-1.246-2.879-1.709c-0.661-0.463-0.984-0.752-0.986-0.75c-0.361-0.315-0.907-0.277-1.22,0.083   c-0.315,0.358-0.277,0.904,0.083,1.219c0.076,0.058,6.123,5.361,15.214,5.375C59.706,52.244,65.512,45.944,65.586,45.883    M73.126,39.293c-1.564,4.407-4.355,8.223-7.95,11.07l-0.096-0.057l-0.925,0.674c-4.048,2.94-8.993,4.692-14.368,4.707   c-0.144-0.001-0.286-0.008-0.43-0.011c-0.287-0.005-0.572-0.019-0.857-0.033c-10.306-0.61-18.874-7.545-21.941-16.976   c3.061-0.667,8.399-2.023,10.757-3.791c1.452-1.089,3.057-2.639,4.422-4.06c1.458,0.436,3.043,0.861,4.79,1.251   c11.071,2.475,21.497-0.118,21.497-0.118S70.969,37.438,73.126,39.293 M56.156,59.608c-1.067,0.981-2.793,1.878-6.042,1.89   c-4.441-0.039-6.161-1.535-7.12-2.874c-0.082-0.121-0.15-0.244-0.22-0.365c1.809,0.463,3.686,0.749,5.614,0.844   c0.235,0.013,0.473,0.016,0.71,0.023c0.207,0.004,0.412,0.02,0.62,0.02c0.025,0,0.049-0.003,0.073-0.003   c0.048,0.001,0.095,0.004,0.142,0.004c2.529,0,4.978-0.34,7.308-0.967C56.979,58.668,56.635,59.163,56.156,59.608 M25.542,82.088   c0.095-12.083,2.332-22.055,9.265-27.238c1.224,0.77,2.518,1.437,3.86,2.014c0.135,0.865,0.493,2.254,1.472,3.705   c1.515,2.288,4.698,4.425,9.975,4.386c0.052,0,0.105,0.001,0.156,0.001c5.114,0,8.217-2.195,9.664-4.525   c0.904-1.424,1.255-2.789,1.394-3.703c1.396-0.62,2.731-1.349,3.996-2.181c3.562,2.521,5.786,6.118,7.2,10.698   c1.464,4.774,1.96,10.565,1.998,16.857c-0.639,0.228-1.661,0.507-2.572,0.786c-0.16,0.05-0.31,0.102-0.463,0.153l-2.096-15.272   c0,0-0.475,16.953-0.534,17.624c-0.141,2.189-0.693,3.642-1.494,4.688c-1.185,1.55-3.196,2.465-6.209,2.952   c-2.987,0.485-6.811,0.496-11.12,0.494c-1.269,0-2.495,0.006-3.668,0.006c-4.761,0.016-8.68-0.178-11.092-1.268   c-2.345-1.113-3.606-2.605-3.892-6.857c-0.783-6.033-0.104-17.639-0.104-17.639l-2.112,15.392l0.118,0.078   c-0.84-0.32-1.741-0.531-2.628-0.806C26.239,82.314,25.846,82.194,25.542,82.088 M77.746,34.712   c0.155-1.191,0.256-2.398,0.256-3.631C78,15.577,65.437,3.013,49.933,3.011C36.458,3.013,25.213,12.512,22.5,25.18l-0.097-0.225   c0,0-0.006,0.283-0.014,0.785c-0.334,1.73-0.522,3.513-0.522,5.341c0,1.855,0.215,3.656,0.559,5.41   c0.113,4.483,0.387,9.094,1,11.424c1.418,5.386,5.953,6.803,5.953,6.803v0.564C23.603,62.046,22.095,72.125,22.083,83   c0.085,1.192,0.746,1.534,1.028,1.756c0.595,0.376,1.133,0.542,1.765,0.751c0.928,0.293,1.986,0.566,2.759,0.814   c0.124,0.039,0.24,0.078,0.344,0.116c0.368,4.531,2.602,7.624,5.904,8.993c3.44,1.482,7.66,1.54,12.483,1.559   c1.184,0,2.409-0.007,3.668-0.007c5.754-0.014,10.833,0.04,14.909-1.311c2.033-0.679,3.85-1.779,5.158-3.484   c1.171-1.517,1.88-3.445,2.134-5.75c0.527-0.185,1.427-0.467,2.219-0.686c0.63-0.19,1.239-0.378,1.796-0.616   c0.282-0.127,0.55-0.253,0.865-0.486c0.266-0.223,0.822-0.643,0.866-1.649c-0.003-6.798-0.455-13.207-2.153-18.768   c-0.86-2.83-2.084-5.442-3.738-7.734c1.386-0.574,3.396-1.982,4.911-5.465C78.519,47.543,78.229,40.144,77.746,34.712"></path></g></svg>